<?xml version="1.0" encoding="UTF-8" standalone="no"?>
<!DOCTYPE svg PUBLIC "-//W3C//DTD SVG 1.1//EN" "http://www.w3.org/Graphics/SVG/1.1/DTD/svg11.dtd">
<svg xmlns:dc="http://purl.org/dc/elements/1.1/" xmlns:xl="http://www.w3.org/1999/xlink" xmlns="http://www.w3.org/2000/svg" version="1.1" viewBox="80.42519 142.90638 863.7107 481.68644" width="863.7107" height="481.68644">
  <defs/>
  <metadata> Produced by OmniGraffle 7.12.1 
    <dc:date>2019-11-08 10:53:12 +0000</dc:date>
  </metadata>
  <g id="Canevas_1" fill-opacity="1" fill="none" stroke="none" stroke-opacity="1" stroke-dasharray="none">
    <title>Canevas 1</title>
    <g id="Canevas_1: Calque 1">
      <title>Calque 1</title>
      <g id="Line_82">
        <path d="M 683.2433 262.8253 C 672.73595 273.05825 651.8622 274.51456 640.8815 262.766" stroke="black" stroke-linecap="square" stroke-linejoin="round" stroke-width="2"/>
      </g>
      <g id="Line_33">
        <path d="M 383.5656 262.8253 C 373.05825 273.05825 352.18447 274.51456 341.2038 262.766" stroke="black" stroke-linecap="square" stroke-linejoin="round" stroke-width="2"/>
      </g>
      <g id="Graphic_4">
        <rect x="84.24345" y="302.4078" width="859.8924" height="15.3985" fill="#004f8f"/>
      </g>
      <g id="Graphic_5">
        <rect x="82.92873" y="551.1567" width="859.8925" height="15.3985" fill="#004f8f"/>
      </g>
      <g id="Graphic_6">
        <path d="M 359.6794 328.2713 L 239.1185 538.9356 L 480.2931 538.9356 L 359.6794 328.2713 Z M 359.6794 448.8851 L 376.0185 477.5976 L 343.3931 477.5976 L 359.6794 448.8851 Z" fill="#004f8f"/>
      </g>
      <g id="Graphic_7">
        <path d="M 166.2482 327.5442 L 88.15505 327.9583 L 163.1718 458.8828 L 163.1718 538.2775 L 230.261 538.2775 L 230.261 460.1843 L 306.0469 327.9583 L 227.9537 327.5442 L 197.1306 382.6236 L 166.2482 327.5442 Z" fill="#004f8f"/>
      </g>
      <g id="Graphic_8">
        <path d="M 630.1917 321.8358 L 556.0031 396.8526 L 556.0031 330.8283 L 488.914 330.8283 L 488.914 540.3785 L 556.0031 540.3785 L 556.0031 511.3301 C 603.2468 552.1964 670.2073 558.0442 723.1936 529.0194 L 689.5307 471.5144 C 658.9347 487.3293 620.5917 482.7984 594.9314 457.1382 C 594.2167 456.4235 593.654 455.6284 592.9791 454.89 L 677.8759 369.0467 L 630.1917 321.8358 Z" fill="#004f8f"/>
      </g>
      <g id="Graphic_9">
        <path d="M 937.5949 330.71 L 796.613 330.7691 L 796.613 331.3016 C 779.6845 331.8525 762.9167 338.3752 749.9938 351.2982 C 722.9966 378.2953 722.9968 422.0359 749.9938 449.033 C 763.3109 462.3501 780.694 469.0283 798.1512 469.2071 C 798.1491 469.2666 798.1533 469.3252 798.1512 469.3846 L 867.5477 469.3846 L 867.5477 469.6804 C 868.0397 469.7082 868.531 469.8358 868.9084 470.2129 C 869.7304 471.0349 869.7304 472.3485 868.9084 473.1709 C 868.531 473.5484 868.0437 473.7318 867.5477 473.7626 L 867.5477 473.8217 L 729.7605 473.8217 L 729.7605 541.5617 L 868.1393 541.5025 L 868.1393 541.1475 C 885.7032 540.9691 903.2534 534.2536 916.6518 520.8551 C 943.8107 493.6963 943.8101 449.6877 916.6518 422.5287 C 903.4805 409.3575 886.2886 402.747 869.0267 402.3546 L 798.9795 402.3546 L 798.9795 402.1771 C 798.4009 402.2137 797.8245 402.087 797.3821 401.6447 C 796.565 400.8275 796.565 399.5039 797.3821 398.6866 C 797.7907 398.278 798.3258 398.0949 798.8612 398.095 C 798.9055 398.095 798.9353 398.1516 798.9795 398.1541 L 798.9795 397.9766 L 937.5949 397.9175 L 937.5949 330.71 Z" fill="#004f8f"/>
      </g>
      <g id="Graphic_10">
        <path d="M 84.2782 305.3196 C 75.28224 262.9101 84.2782 242.6049 88.64767 238.2355 C 95.33038 231.5528 117.9488 211.2476 137.9969 202.2516 C 153.6756 195.5689 218.7035 190.9424 234.3822 195.5689 C 250.0609 199.9384 257.0006 226.9263 265.9966 231.5528 C 274.7355 233.609 281.4182 229.2395 290.6712 229.2395 C 310.7193 229.2395 319.7153 260.5969 337.4502 260.5969 C 342.0767 264.9663 337.7072 276.2755 337.7072 276.2755 C 333.0807 278.5888 315.0888 287.5847 315.0888 305.3196 L 84.2782 305.3196 Z" fill="#00508f"/>
      </g>
      <g id="Graphic_11">
        <path d="M 286.8158 242.6049 C 282.1893 244.9182 273.7074 242.0909 270.8801 238.2355 C 255.2014 215.6171 306.8639 170.8943 304.5507 143.9064 C 311.4904 175.2638 266.5106 224.613 284.5025 233.609 C 288.872 235.9222 288.872 240.5487 286.8158 242.6049 Z" fill="#adc5e7"/>
      </g>
      <g id="Graphic_12">
        <path d="M 286.8154 242.6049 C 282.1889 244.91815 273.707 242.09085 270.8797 238.23544 C 255.201 215.61703 306.86352 170.89426 304.55028 143.90638 C 311.49 175.26373 266.51022 224.61299 284.50214 233.60895 C 288.8716 235.9222 288.8716 240.54869 286.8154 242.6049 Z" stroke="black" stroke-linecap="butt" stroke-linejoin="round" stroke-width="2"/>
      </g>
      <g id="Graphic_13">
        <path d="M 158.8161 179.8902 C 185.804 177.577 208.1654 173.2075 226.1573 193.2557 C 230.7838 197.8822 210.4787 251.6009 199.1695 255.9704 C 197.1132 258.2836 163.4426 260.5969 143.1375 256.2274 C 138.768 253.9141 134.1415 251.6009 132.0853 247.2314 C 129.7721 240.5487 136.4548 193.2557 158.8161 179.8902 Z" fill="#adc5e7"/>
      </g>
      <g id="Graphic_14">
        <path d="M 158.81574 179.89022 C 185.80362 177.57697 208.165 173.2075 226.15692 193.25564 C 230.7834 197.88214 210.47825 251.60086 199.16904 255.97033 C 197.11282 258.28358 163.44223 260.59682 143.13707 256.22736 C 138.7676 253.9141 134.14111 251.60086 132.08489 247.2314 C 129.77164 240.54869 136.45436 193.25564 158.81574 179.89022 Z" stroke="black" stroke-linecap="butt" stroke-linejoin="round" stroke-width="2"/>
      </g>
      <g id="Graphic_15">
        <path d="M 210.4787 181.9465 C 237.2095 166.5248 257.5147 195.5689 259.8279 199.9384 C 261.8841 204.5649 261.8841 220.2435 257.5147 220.2435 C 243.8922 197.6251 239.5228 195.5689 226.1573 193.2557 C 221.0168 189.4003 215.6192 185.8019 210.4787 181.9465 Z" fill="#adc5e7"/>
      </g>
      <g id="Graphic_16">
        <path d="M 210.47825 181.94644 C 237.2091 166.5248 257.51426 195.5689 259.8275 199.93836 C 261.88373 204.56485 261.88373 220.24352 257.51426 220.24352 C 243.8918 197.6251 239.52234 195.5689 226.15692 193.25564 C 221.01637 189.40023 215.6188 185.80185 210.47825 181.94644 Z" stroke="black" stroke-linecap="butt" stroke-linejoin="round" stroke-width="2"/>
      </g>
      <g id="Graphic_17">
        <path d="M 299.4101 230.7817 C 328.7113 210.7335 307.121 188.8862 331.7956 146.2197 C 313.5466 188.8862 336.1651 220.2435 309.1772 238.2355 C 304.8077 233.609 303.2656 233.866 299.4101 230.7817 Z" fill="#adc5e7"/>
      </g>
      <g id="Graphic_18">
        <path d="M 299.40973 230.78164 C 328.71085 210.7335 307.12055 188.88618 331.79518 146.21963 C 313.54623 188.88618 336.16465 220.24352 309.17677 238.23544 C 304.8073 233.60895 303.26514 233.86597 299.40973 230.78164 Z" stroke="black" stroke-linecap="butt" stroke-linejoin="round" stroke-width="2"/>
      </g>
      <g id="Graphic_19">
        <path d="M 296.3258 248.5166 C 298.6391 249.2876 299.4101 253.1431 297.868 257.5125 C 296.5828 261.625 293.7555 264.4523 291.4423 263.6812 C 288.872 262.9101 288.358 259.0547 289.6431 254.6852 C 290.9282 250.5728 293.7555 247.7455 296.3258 248.5166 Z M 291.9563 247.2314 L 291.9563 247.2314 Z M 295.5547 265.2233 L 295.5547 265.2233 Z" fill="white"/>
      </g>
      <g id="Graphic_20">
        <path d="M 296.3254 248.51653 C 298.63865 249.28762 299.40973 253.14303 297.86756 257.5125 C 296.58243 261.62493 293.75512 264.45223 291.44188 263.68115 C 288.8716 262.91007 288.35755 259.05466 289.6427 254.6852 C 290.92782 250.57275 293.75512 247.74545 296.3254 248.51653 Z" stroke="black" stroke-linecap="butt" stroke-linejoin="round" stroke-width="2"/>
      </g>
      <g id="Graphic_21">
        <path d="M 295.8118 250.3158 C 297.0969 250.8298 297.3539 252.629 296.8399 254.6852 C 296.0688 256.7414 294.7836 258.0266 293.7555 257.7696 C 292.7274 257.2555 292.2134 255.4563 292.7274 253.4001 C 293.4985 251.3439 294.7836 250.0587 295.8118 250.3158 Z M 293.7555 249.8017 L 293.7555 249.8017 Z M 295.8118 258.5406 L 295.8118 258.5406 Z" fill="black"/>
      </g>
      <g id="Graphic_22">
        <path d="M 295.81134 250.31573 C 297.09648 250.82978 297.3535 252.62897 296.83945 254.6852 C 296.06837 256.7414 294.78323 258.02655 293.75512 257.76952 C 292.727 257.25547 292.21296 255.45627 292.727 253.40006 C 293.4981 251.34384 294.78323 250.0587 295.81134 250.31573 Z" stroke="black" stroke-linecap="butt" stroke-linejoin="round" stroke-width="1"/>
      </g>
      <g id="Graphic_23">
        <path d="M 133.1134 247.2314 C 133.1134 240.5487 178.8643 240.2917 187.8602 235.9222 C 196.8562 229.2395 203.5389 181.9465 210.4787 183.4886 C 217.1614 186.573 221.0168 190.9424 226.1573 195.5689 C 221.5308 215.6171 208.1654 255.9704 194.8 255.9704 C 176.8081 258.2836 161.1294 258.2836 143.3945 254.9422 C 138.768 252.629 136.4548 251.6009 133.1134 247.2314 Z" fill="#7da7d8"/>
      </g>
      <g id="Graphic_24">
        <path d="M 241.836 184.2597 C 246.4625 195.5689 235.1533 193.2557 235.1533 193.2557 C 246.4625 197.8822 253.1452 208.9343 257.5147 217.9303 C 266.5106 204.5649 248.5187 186.573 241.836 184.2597 Z" fill="#7da7d8"/>
      </g>
      <g id="Graphic_25">
        <path d="M 152.1334 258.2836 C 149.8202 287.5847 196.8562 280.902 214.8481 260.5969 C 226.1573 247.2314 239.5228 204.5649 227.9565 198.3962 C 221.5308 229.2395 205.8522 251.6009 201.4827 255.9704 C 194.8 260.5969 167.8121 260.5969 152.1334 258.2836 Z" fill="#003d73"/>
      </g>
      <g id="Graphic_26">
        <path d="M 331.5386 260.5969 C 293.4985 258.2836 306.8639 240.2917 286.8158 230.2676 C 311.2334 229.2395 315.8599 256.2274 331.5386 260.5969 Z" fill="#003d73"/>
      </g>
      <g id="Graphic_27">
        <path d="M 333.8518 260.5969 C 329.9964 261.3679 328.7113 262.6531 329.2253 264.9663 C 329.4823 266.2515 328.7113 266.7655 330.2534 267.2796 C 327.4261 266.7655 325.3699 265.4804 324.8559 263.4242 C 324.3418 260.3398 327.6832 256.9985 332.5667 256.2274 C 337.7072 255.1993 342.0767 256.7414 342.5907 260.0828 C 342.8478 261.882 341.8197 263.6812 340.0205 264.9663 C 340.7916 264.1952 341.3056 263.1671 341.0486 262.139 C 340.5345 259.8258 337.4502 259.8258 333.8518 260.5969 Z" fill="#adc6e8"/>
      </g>
      <g id="Graphic_28">
        <path d="M 333.8514 260.59682 C 329.996 261.3679 328.71085 262.65304 329.2249 264.9663 C 329.48193 266.25143 328.71085 266.76548 330.253 267.27953 C 327.4257 266.76548 325.3695 265.48034 324.85544 263.42412 C 324.3414 260.3398 327.68274 256.99844 332.56626 256.22736 C 337.7068 255.19925 342.07628 256.7414 342.59033 260.08277 C 342.84736 261.88196 341.81925 263.68115 340.02006 264.9663 C 340.79114 264.1952 341.3052 263.1671 341.04817 262.139 C 340.5341 259.82574 337.4498 259.82574 333.8514 260.59682 Z" stroke="black" stroke-linecap="butt" stroke-linejoin="round" stroke-width="2"/>
      </g>
      <g id="Graphic_29">
        <path d="M 246.4625 206.8781 C 253.1452 233.609 257.5147 285.2715 255.2014 300.9501 C 288.872 264.9663 268.8239 242.6049 264.1974 231.2957 C 255.2014 224.613 253.1452 213.5608 246.4625 206.8781 Z" fill="#003d73"/>
      </g>
      <g id="Graphic_30">
        <path d="M 270.8801 242.6049 C 257.5147 240.5487 246.4625 255.9704 241.836 264.9663 C 257.5147 255.9704 257.5147 260.5969 270.8801 255.9704 L 270.8801 242.6049 Z" fill="#00599d"/>
      </g>
      <g id="Line_31">
        <path d="M 270.8797 242.6049 C 250.79787 246.2766 251.51696 257.5125 241.8356 264.9663 C 251.60263 261.96764 261.36967 258.96898 271.1367 255.97033" stroke="black" stroke-linecap="butt" stroke-linejoin="round" stroke-width="2"/>
      </g>
      <g id="Graphic_32">
        <path d="M 270.8801 246.9744 C 257.5147 249.2876 253.1452 258.2836 253.1452 258.2836 C 266.5106 255.9704 259.8279 258.5406 270.8801 254.9422 L 270.8801 246.9744 Z" fill="#003d73"/>
      </g>
      <g id="Graphic_34">
        <path d="M 384.5144 305.3196 C 375.5184 262.9101 384.5144 242.6049 388.8839 238.2355 C 395.5666 231.5528 418.185 211.2476 438.2331 202.2516 C 453.9118 195.5689 518.9397 190.9424 534.6184 195.5689 C 550.2971 199.9384 557.2368 226.9263 566.2328 231.5528 C 574.9717 233.609 581.6544 229.2395 590.9074 229.2395 C 610.9556 229.2395 619.9515 260.5969 637.6864 260.5969 C 642.3129 264.9663 637.9434 276.2755 637.9434 276.2755 C 633.3169 278.5888 615.325 287.5847 615.325 305.3196 L 384.5144 305.3196 Z" fill="#00508f"/>
      </g>
      <g id="Graphic_35">
        <path d="M 587.052 242.6049 C 582.4255 244.9182 573.9436 242.0909 571.1163 238.2355 C 555.4376 215.6171 607.1001 170.8943 604.7869 143.9064 C 611.7266 175.2638 566.7468 224.613 584.7388 233.609 C 589.1082 235.9222 589.1082 240.5487 587.052 242.6049 Z" fill="#adc5e7"/>
      </g>
      <g id="Graphic_36">
        <path d="M 587.052 242.6049 C 582.4255 244.91815 573.9436 242.09085 571.1163 238.23544 C 555.4376 215.61703 607.1001 170.89426 604.7869 143.90638 C 611.7266 175.26373 566.7468 224.61299 584.73874 233.60895 C 589.1082 235.9222 589.1082 240.54869 587.052 242.6049 Z" stroke="black" stroke-linecap="butt" stroke-linejoin="round" stroke-width="2"/>
      </g>
      <g id="Graphic_37">
        <path d="M 459.0524 179.8902 C 486.0402 177.577 508.4016 173.2075 526.3935 193.2557 C 531.02 197.8822 510.7149 251.6009 499.4057 255.9704 C 497.3494 258.2836 463.6788 260.5969 443.3737 256.2274 C 439.0042 253.9141 434.3777 251.6009 432.3215 247.2314 C 430.0083 240.5487 436.691 193.2557 459.0524 179.8902 Z" fill="#adc5e7"/>
      </g>
      <g id="Graphic_38">
        <path d="M 459.05234 179.89022 C 486.0402 177.57697 508.4016 173.2075 526.3935 193.25564 C 531.02 197.88214 510.71485 251.60086 499.40564 255.97033 C 497.3494 258.28358 463.67883 260.59682 443.37367 256.22736 C 439.0042 253.9141 434.3777 251.60086 432.3215 247.2314 C 430.00824 240.54869 436.69096 193.25564 459.05234 179.89022 Z" stroke="black" stroke-linecap="butt" stroke-linejoin="round" stroke-width="2"/>
      </g>
      <g id="Graphic_39">
        <path d="M 510.7149 181.9465 C 537.4457 166.5248 557.7509 195.5689 560.0641 199.9384 C 562.1203 204.5649 562.1203 220.2435 557.7509 220.2435 C 544.1284 197.6251 539.759 195.5689 526.3935 193.2557 C 521.253 189.4003 515.8554 185.8019 510.7149 181.9465 Z" fill="#adc5e7"/>
      </g>
      <g id="Graphic_40">
        <path d="M 510.71485 181.94644 C 537.4457 166.5248 557.75086 195.5689 560.0641 199.93836 C 562.1203 204.56485 562.1203 220.24352 557.75086 220.24352 C 544.1284 197.6251 539.75894 195.5689 526.3935 193.25564 C 521.253 189.40023 515.8554 185.80185 510.71485 181.94644 Z" stroke="black" stroke-linecap="butt" stroke-linejoin="round" stroke-width="2"/>
      </g>
      <g id="Graphic_41">
        <path d="M 599.6463 230.7817 C 628.9475 210.7335 607.3572 188.8862 632.0318 146.2197 C 613.7829 188.8862 636.4013 220.2435 609.4134 238.2355 C 605.0439 233.609 603.5018 233.866 599.6463 230.7817 Z" fill="#adc5e7"/>
      </g>
      <g id="Graphic_42">
        <path d="M 599.6463 230.78164 C 628.94745 210.7335 607.35715 188.88618 632.0318 146.21963 C 613.7828 188.88618 636.40125 220.24352 609.4134 238.23544 C 605.0439 233.60895 603.50174 233.86597 599.6463 230.78164 Z" stroke="black" stroke-linecap="butt" stroke-linejoin="round" stroke-width="2"/>
      </g>
      <g id="Graphic_43">
        <path d="M 596.562 248.5166 C 598.8753 249.2876 599.6463 253.1431 598.1042 257.5125 C 596.819 261.625 593.9917 264.4523 591.6785 263.6812 C 589.1082 262.9101 588.5942 259.0547 589.8793 254.6852 C 591.1644 250.5728 593.9917 247.7455 596.562 248.5166 Z M 592.1926 247.2314 L 592.1926 247.2314 Z M 595.7909 265.2233 L 595.7909 265.2233 Z" fill="white"/>
      </g>
      <g id="Graphic_44">
        <path d="M 596.562 248.51653 C 598.87525 249.28762 599.6463 253.14303 598.10416 257.5125 C 596.819 261.62493 593.9917 264.45223 591.6785 263.68115 C 589.1082 262.91007 588.59415 259.05466 589.8793 254.6852 C 591.1644 250.57275 593.9917 247.74545 596.562 248.51653 Z" stroke="black" stroke-linecap="butt" stroke-linejoin="round" stroke-width="2"/>
      </g>
      <g id="Graphic_45">
        <path d="M 596.048 250.3158 C 597.3331 250.8298 597.5901 252.629 597.0761 254.6852 C 596.305 256.7414 595.0199 258.0266 593.9917 257.7696 C 592.9636 257.2555 592.4496 255.4563 592.9636 253.4001 C 593.7347 251.3439 595.0199 250.0587 596.048 250.3158 Z M 593.9917 249.8017 L 593.9917 249.8017 Z M 596.048 258.5406 L 596.048 258.5406 Z" fill="black"/>
      </g>
      <g id="Graphic_46">
        <path d="M 596.04794 250.31573 C 597.3331 250.82978 597.5901 252.62897 597.07605 254.6852 C 596.305 256.7414 595.0198 258.02655 593.9917 257.76952 C 592.9636 257.25547 592.44956 255.45627 592.9636 253.40006 C 593.7347 251.34384 595.0198 250.0587 596.04794 250.31573 Z" stroke="black" stroke-linecap="butt" stroke-linejoin="round" stroke-width="1"/>
      </g>
      <g id="Graphic_47">
        <path d="M 433.3496 247.2314 C 433.3496 240.5487 479.1005 240.2917 488.0965 235.9222 C 497.0924 229.2395 503.7751 181.9465 510.7149 183.4886 C 517.3976 186.573 521.253 190.9424 526.3935 195.5689 C 521.767 215.6171 508.4016 255.9704 495.0362 255.9704 C 477.0443 258.2836 461.3656 258.2836 443.6307 254.9422 C 439.0042 252.629 436.691 251.6009 433.3496 247.2314 Z" fill="#7da7d8"/>
      </g>
      <g id="Graphic_48">
        <path d="M 542.0722 184.2597 C 546.6987 195.5689 535.3895 193.2557 535.3895 193.2557 C 546.6987 197.8822 553.3814 208.9343 557.7509 217.9303 C 566.7468 204.5649 548.7549 186.573 542.0722 184.2597 Z" fill="#7da7d8"/>
      </g>
      <g id="Graphic_49">
        <path d="M 452.3696 258.2836 C 450.0564 287.5847 497.0924 280.902 515.0843 260.5969 C 526.3935 247.2314 539.759 204.5649 528.1927 198.3962 C 521.767 229.2395 506.0884 251.6009 501.7189 255.9704 C 495.0362 260.5969 468.0483 260.5969 452.3696 258.2836 Z" fill="#003d73"/>
      </g>
      <g id="Graphic_50">
        <path d="M 631.7748 260.5969 C 593.7347 258.2836 607.1001 240.2917 587.052 230.2676 C 611.4696 229.2395 616.0961 256.2274 631.7748 260.5969 Z" fill="#003d73"/>
      </g>
      <g id="Graphic_51">
        <path d="M 634.088 260.5969 C 630.2326 261.3679 628.9475 262.6531 629.4615 264.9663 C 629.7186 266.2515 628.9475 266.7655 630.4896 267.2796 C 627.6623 266.7655 625.6061 265.4804 625.0921 263.4242 C 624.578 260.3398 627.9194 256.9985 632.8029 256.2274 C 637.9434 255.1993 642.3129 256.7414 642.8269 260.0828 C 643.084 261.882 642.0559 263.6812 640.2567 264.9663 C 641.0278 264.1952 641.5418 263.1671 641.2848 262.139 C 640.7707 259.8258 637.6864 259.8258 634.088 260.5969 Z" fill="#adc6e8"/>
      </g>
      <g id="Graphic_52">
        <path d="M 634.088 260.59682 C 630.2326 261.3679 628.94745 262.65304 629.4615 264.9663 C 629.7185 266.25143 628.94745 266.76548 630.4896 267.27953 C 627.6623 266.76548 625.6061 265.48034 625.09204 263.42412 C 624.578 260.3398 627.91934 256.99844 632.80286 256.22736 C 637.9434 255.19925 642.3129 256.7414 642.8269 260.08277 C 643.08396 261.88196 642.05585 263.68115 640.25666 264.9663 C 641.02774 264.1952 641.5418 263.1671 641.2848 262.139 C 640.7707 259.82574 637.6864 259.82574 634.088 260.59682 Z" stroke="black" stroke-linecap="butt" stroke-linejoin="round" stroke-width="2"/>
      </g>
      <g id="Graphic_53">
        <path d="M 546.6987 206.8781 C 553.3814 233.609 557.7509 285.2715 555.4376 300.9501 C 589.1082 264.9663 569.0601 242.6049 564.4336 231.2957 C 555.4376 224.613 553.3814 213.5608 546.6987 206.8781 Z" fill="#003d73"/>
      </g>
      <g id="Graphic_54">
        <path d="M 571.1163 242.6049 C 557.7509 240.5487 546.6987 255.9704 542.0722 264.9663 C 557.7509 255.9704 557.7509 260.5969 571.1163 255.9704 L 571.1163 242.6049 Z" fill="#00599d"/>
      </g>
      <g id="Line_55">
        <path d="M 571.1163 242.6049 C 549.2021 246.8085 551.75356 257.5125 542.0722 264.9663 C 551.8392 261.96764 561.6063 258.96898 571.3733 255.97033" stroke="black" stroke-linecap="butt" stroke-linejoin="round" stroke-width="2"/>
      </g>
      <g id="Graphic_56">
        <path d="M 571.1163 246.9744 C 557.7509 249.2876 553.3814 258.2836 553.3814 258.2836 C 566.7468 255.9704 560.0641 258.5406 571.1163 254.9422 L 571.1163 246.9744 Z" fill="#003d73"/>
      </g>
      <g id="Graphic_57">
        <path d="M 684.7506 305.3196 C 675.7547 262.9101 684.7506 242.6049 689.1201 238.2355 C 695.8028 231.5528 718.4212 211.2476 738.4693 202.2516 C 754.148 195.5689 819.1759 190.9424 834.8546 195.5689 C 850.5333 199.9384 857.473 226.9263 866.469 231.5528 C 875.2079 233.609 881.8906 229.2395 891.1436 229.2395 C 911.1918 229.2395 920.1877 260.5969 937.9226 260.5969 C 942.5491 264.9663 938.1796 276.2755 938.1796 276.2755 C 933.5531 278.5888 915.5612 287.5847 915.5612 305.3196 L 684.7506 305.3196 Z" fill="#00508f"/>
      </g>
      <g id="Graphic_58">
        <path d="M 887.2882 242.6049 C 882.6617 244.9182 874.1798 242.0909 871.3525 238.2355 C 855.6738 215.6171 907.3363 170.8943 905.0231 143.9064 C 911.9628 175.2638 866.983 224.613 884.975 233.609 C 889.3444 235.9222 889.3444 240.5487 887.2882 242.6049 Z" fill="#adc5e7"/>
      </g>
      <g id="Graphic_59">
        <path d="M 887.2882 242.6049 C 882.6617 244.91815 874.1798 242.09085 871.3525 238.23544 C 855.6738 215.61703 907.3363 170.89426 905.0231 143.90638 C 911.9628 175.26373 866.983 224.61299 884.9749 233.60895 C 889.3444 235.9222 889.3444 240.54869 887.2882 242.6049 Z" stroke="black" stroke-linecap="butt" stroke-linejoin="round" stroke-width="2"/>
      </g>
      <g id="Graphic_60">
        <path d="M 759.2886 179.8902 C 786.2764 177.577 808.6378 173.2075 826.6297 193.2557 C 831.2562 197.8822 810.9511 251.6009 799.6419 255.9704 C 797.5856 258.2836 763.9151 260.5969 743.6099 256.2274 C 739.2404 253.9141 734.6139 251.6009 732.5577 247.2314 C 730.2445 240.5487 736.9272 193.2557 759.2886 179.8902 Z" fill="#adc5e7"/>
      </g>
      <g id="Graphic_61">
        <path d="M 759.2885 179.89022 C 786.2764 177.57697 808.6378 173.2075 826.6297 193.25564 C 831.2562 197.88214 810.951 251.60086 799.6418 255.97033 C 797.5856 258.28358 763.915 260.59682 743.6099 256.22736 C 739.2404 253.9141 734.6139 251.60086 732.5577 247.2314 C 730.2444 240.54869 736.92716 193.25564 759.2885 179.89022 Z" stroke="black" stroke-linecap="butt" stroke-linejoin="round" stroke-width="2"/>
      </g>
      <g id="Graphic_62">
        <path d="M 810.9511 181.9465 C 837.6819 166.5248 857.9871 195.5689 860.3003 199.9384 C 862.3566 204.5649 862.3566 220.2435 857.9871 220.2435 C 844.3646 197.6251 839.9952 195.5689 826.6297 193.2557 C 821.4892 189.4003 816.0916 185.8019 810.9511 181.9465 Z" fill="#adc5e7"/>
      </g>
      <g id="Graphic_63">
        <path d="M 810.951 181.94644 C 837.6819 166.5248 857.9871 195.5689 860.3003 199.93836 C 862.3565 204.56485 862.3565 220.24352 857.9871 220.24352 C 844.3646 197.6251 839.9951 195.5689 826.6297 193.25564 C 821.4892 189.40023 816.0916 185.80185 810.951 181.94644 Z" stroke="black" stroke-linecap="butt" stroke-linejoin="round" stroke-width="2"/>
      </g>
      <g id="Graphic_64">
        <path d="M 899.8826 230.7817 C 929.1837 210.7335 907.5934 188.8862 932.268 146.2197 C 914.0191 188.8862 936.6375 220.2435 909.6496 238.2355 C 905.2801 233.609 903.738 233.866 899.8826 230.7817 Z" fill="#adc5e7"/>
      </g>
      <g id="Graphic_65">
        <path d="M 899.8825 230.78164 C 929.1837 210.7335 907.5933 188.88618 932.268 146.21963 C 914.019 188.88618 936.6374 220.24352 909.6496 238.23544 C 905.2801 233.60895 903.7379 233.86597 899.8825 230.78164 Z" stroke="black" stroke-linecap="butt" stroke-linejoin="round" stroke-width="2"/>
      </g>
      <g id="Graphic_66">
        <path d="M 896.7982 248.5166 C 899.1115 249.2876 899.8826 253.1431 898.3404 257.5125 C 897.0553 261.625 894.2279 264.4523 891.9147 263.6812 C 889.3444 262.9101 888.8304 259.0547 890.1155 254.6852 C 891.4006 250.5728 894.2279 247.7455 896.7982 248.5166 Z M 892.4288 247.2314 L 892.4288 247.2314 Z M 896.0271 265.2233 L 896.0271 265.2233 Z" fill="white"/>
      </g>
      <g id="Graphic_67">
        <path d="M 896.7982 248.51653 C 899.1114 249.28762 899.8825 253.14303 898.3404 257.5125 C 897.0552 261.62493 894.2279 264.45223 891.9147 263.68115 C 889.3444 262.91007 888.8303 259.05466 890.1155 254.6852 C 891.4006 250.57275 894.2279 247.74545 896.7982 248.51653 Z" stroke="black" stroke-linecap="butt" stroke-linejoin="round" stroke-width="2"/>
      </g>
      <g id="Graphic_68">
        <path d="M 896.2842 250.3158 C 897.5693 250.8298 897.8263 252.629 897.3123 254.6852 C 896.5412 256.7414 895.2561 258.0266 894.2279 257.7696 C 893.1998 257.2555 892.6858 255.4563 893.1998 253.4001 C 893.9709 251.3439 895.2561 250.0587 896.2842 250.3158 Z M 894.2279 249.8017 L 894.2279 249.8017 Z M 896.2842 258.5406 L 896.2842 258.5406 Z" fill="black"/>
      </g>
      <g id="Graphic_69">
        <path d="M 896.2841 250.31573 C 897.5693 250.82978 897.8263 252.62897 897.3123 254.6852 C 896.5412 256.7414 895.256 258.02655 894.2279 257.76952 C 893.1998 257.25547 892.6858 255.45627 893.1998 253.40006 C 893.9709 251.34384 895.256 250.0587 896.2841 250.31573 Z" stroke="black" stroke-linecap="butt" stroke-linejoin="round" stroke-width="1"/>
      </g>
      <g id="Graphic_70">
        <path d="M 733.5858 247.2314 C 733.5858 240.5487 779.3367 240.2917 788.3327 235.9222 C 797.3286 229.2395 804.0113 181.9465 810.9511 183.4886 C 817.6338 186.573 821.4892 190.9424 826.6297 195.5689 C 822.0032 215.6171 808.6378 255.9704 795.2724 255.9704 C 777.2805 258.2836 761.6018 258.2836 743.8669 254.9422 C 739.2404 252.629 736.9272 251.6009 733.5858 247.2314 Z" fill="#7da7d8"/>
      </g>
      <g id="Graphic_71">
        <path d="M 842.3084 184.2597 C 846.9349 195.5689 835.6257 193.2557 835.6257 193.2557 C 846.9349 197.8822 853.6176 208.9343 857.9871 217.9303 C 866.983 204.5649 848.9911 186.573 842.3084 184.2597 Z" fill="#7da7d8"/>
      </g>
      <g id="Graphic_72">
        <path d="M 752.6058 258.2836 C 750.2926 287.5847 797.3286 280.902 815.3205 260.5969 C 826.6297 247.2314 839.9952 204.5649 828.4289 198.3962 C 822.0032 229.2395 806.3246 251.6009 801.9551 255.9704 C 795.2724 260.5969 768.2845 260.5969 752.6058 258.2836 Z" fill="#003d73"/>
      </g>
      <g id="Graphic_73">
        <path d="M 932.011 260.5969 C 893.9709 258.2836 907.3363 240.2917 887.2882 230.2676 C 911.7058 229.2395 916.3323 256.2274 932.011 260.5969 Z" fill="#003d73"/>
      </g>
      <g id="Graphic_74">
        <path d="M 934.3242 260.5969 C 930.4688 261.3679 929.1837 262.6531 929.6977 264.9663 C 929.9548 266.2515 929.1837 266.7655 930.7258 267.2796 C 927.8985 266.7655 925.8423 265.4804 925.3283 263.4242 C 924.8142 260.3398 928.1556 256.9985 933.0391 256.2274 C 938.1796 255.1993 942.5491 256.7414 943.0632 260.0828 C 943.3202 261.882 942.2921 263.6812 940.4929 264.9663 C 941.264 264.1952 941.778 263.1671 941.521 262.139 C 941.0069 259.8258 937.9226 259.8258 934.3242 260.5969 Z" fill="#adc6e8"/>
      </g>
      <g id="Graphic_75">
        <path d="M 934.3242 260.59682 C 930.4688 261.3679 929.1837 262.65304 929.6977 264.9663 C 929.9547 266.25143 929.1837 266.76548 930.7258 267.27953 C 927.8985 266.76548 925.8423 265.48034 925.3282 263.42412 C 924.8142 260.3398 928.1555 256.99844 933.0391 256.22736 C 938.1796 255.19925 942.5491 256.7414 943.0631 260.08277 C 943.3202 261.88196 942.292 263.68115 940.4929 264.9663 C 941.2639 264.1952 941.778 263.1671 941.521 262.139 C 941.0069 259.82574 937.9226 259.82574 934.3242 260.59682 Z" stroke="black" stroke-linecap="butt" stroke-linejoin="round" stroke-width="2"/>
      </g>
      <g id="Graphic_76">
        <path d="M 846.9349 206.8781 C 853.6176 233.609 857.9871 285.2715 855.6738 300.9501 C 889.3444 264.9663 869.2963 242.6049 864.6698 231.2957 C 855.6738 224.613 853.6176 213.5608 846.9349 206.8781 Z" fill="#003d73"/>
      </g>
      <g id="Graphic_77">
        <path d="M 871.3525 242.6049 C 857.9871 240.5487 846.9349 255.9704 842.3084 264.9663 C 857.9871 255.9704 857.9871 260.5969 871.3525 255.9704 L 871.3525 242.6049 Z" fill="#00599d"/>
      </g>
      <g id="Line_78">
        <path d="M 871.3525 242.6049 C 848.6702 247.87234 851.9898 257.5125 842.3084 264.9663 C 852.0754 261.96764 861.8425 258.96898 871.6095 255.97033" stroke="black" stroke-linecap="butt" stroke-linejoin="round" stroke-width="2"/>
      </g>
      <g id="Graphic_79">
        <path d="M 871.3525 246.9744 C 857.9871 249.2876 853.6176 258.2836 853.6176 258.2836 C 866.983 255.9704 860.3003 258.5406 871.3525 254.9422 L 871.3525 246.9744 Z" fill="#003d73"/>
      </g>
      <g id="Graphic_80">
        <path d="M 97.32356 623.701 C 92.57388 623.701 89.09925 622.6012 86.89969 620.4017 C 84.70012 618.2021 83.60034 614.7275 83.60034 609.9778 L 83.60034 594.9348 C 83.60034 590.137 84.68981 586.6486 86.86876 584.4697 C 89.0477 582.2908 92.51201 581.2013 97.2617 581.2013 L 105.242 581.2013 C 109.2906 581.2013 112.3047 582.0502 114.2843 583.748 C 116.2639 585.4389 117.3637 588.154 117.5836 591.8932 C 117.673 593.0411 117.1025 593.6151 115.8721 593.6151 C 114.8135 593.6151 114.2396 593.0411 114.1502 591.8932 C 113.9784 589.2125 113.2326 587.3326 111.9129 586.2534 C 110.5931 585.1742 108.3695 584.6347 105.242 584.6347 L 97.2617 584.6347 C 94.71158 584.6347 92.6976 584.9646 91.21977 585.6245 C 89.74881 586.2843 88.6834 587.3532 88.02353 588.831 C 87.36366 590.302 87.03372 592.3366 87.03372 594.9348 L 87.03372 609.9778 C 87.03372 612.5691 87.36366 614.6037 88.02353 616.0816 C 88.6834 617.5525 89.74881 618.6179 91.21977 619.2778 C 92.6976 619.9377 94.73221 620.2676 97.32356 620.2676 L 105.242 620.2676 C 107.5309 620.2676 109.3249 619.9927 110.6241 619.4428 C 111.9232 618.8929 112.8477 617.9684 113.3976 616.6693 C 113.9475 615.377 114.2224 613.5864 114.2224 611.2975 L 114.2224 607.1424 L 106.9638 607.0702 C 105.816 607.0702 105.242 606.4997 105.242 605.3587 C 105.242 604.2108 105.816 603.6368 106.9638 603.6368 L 115.9339 603.709 C 117.075 603.709 117.6455 604.2795 117.6455 605.4206 L 117.6455 611.2975 C 117.6455 615.6485 116.6694 618.8035 114.7173 620.7625 C 112.7583 622.7215 109.5999 623.701 105.242 623.701 Z M 154.8662 620.2676 C 156.0073 620.2676 156.5778 620.8416 156.5778 621.9895 C 156.5778 623.1305 156.0073 623.701 154.8662 623.701 L 130.1211 623.701 C 128.9801 623.701 128.4096 623.1305 128.4096 621.9895 L 128.4096 582.9231 C 128.4096 581.7752 128.9801 581.2013 130.1211 581.2013 L 154.8662 581.2013 C 156.0073 581.2013 156.5778 581.7752 156.5778 582.9231 C 156.5778 584.0642 156.0073 584.6347 154.8662 584.6347 L 131.8327 584.6347 L 131.8327 600.4715 L 147.0818 600.4715 C 148.2229 600.4715 148.7934 601.0455 148.7934 602.1934 C 148.7934 603.3344 148.2229 603.9049 147.0818 603.9049 L 131.8327 603.9049 L 131.8327 620.2676 Z M 178.2298 623.701 C 173.432 623.701 169.9436 622.6115 167.7646 620.4326 C 165.5857 618.2536 164.4962 614.7687 164.4962 609.9778 L 164.4962 594.9348 C 164.4962 590.137 165.596 586.6383 167.7956 584.4388 C 169.9951 582.2392 173.4491 581.16 178.1576 581.2013 L 186.1482 581.2013 C 190.9391 581.2013 194.4241 582.3011 196.603 584.5006 C 198.7819 586.7002 199.8714 590.1783 199.8714 594.9348 L 199.8714 609.9778 C 199.8714 614.7687 198.7819 618.2536 196.603 620.4326 C 194.4241 622.6115 190.9391 623.701 186.1482 623.701 Z M 178.2298 620.2676 L 186.1482 620.2676 C 189.9287 620.2676 192.5888 619.4978 194.1285 617.9581 C 195.6681 616.4184 196.438 613.7583 196.438 609.9778 L 196.438 594.9348 C 196.438 591.1474 195.6681 588.4839 194.1285 586.9442 C 192.5888 585.4045 189.9287 584.6347 186.1482 584.6347 L 178.1576 584.6347 C 175.6075 584.5934 173.5969 584.9027 172.126 585.5626 C 170.6481 586.2225 169.5793 587.2982 168.9194 588.7898 C 168.2595 590.2882 167.9296 592.3366 167.9296 594.9348 L 167.9296 609.9778 C 167.9296 613.7583 168.6995 616.4184 170.2391 617.9581 C 171.7788 619.4978 174.4424 620.2676 178.2298 620.2676 Z M 211.615 607.4723 C 211.1338 607.4723 210.7386 607.3177 210.4293 607.0084 C 210.12 606.699 209.9654 606.3244 209.9654 605.8845 C 209.9654 605.4446 210.12 605.07 210.4293 604.7607 C 210.7386 604.4514 211.1338 604.2967 211.615 604.2967 L 229.8233 604.2967 C 230.2632 604.2967 230.6378 604.4514 230.9471 604.7607 C 231.2565 605.07 231.4111 605.4446 231.4111 605.8845 C 231.4111 606.3244 231.2565 606.699 230.9471 607.0084 C 230.6378 607.3177 230.2632 607.4723 229.8233 607.4723 Z M 244.0827 623.701 C 242.9348 623.701 242.3608 623.1305 242.3608 621.9895 L 242.3608 582.9231 C 242.3608 581.7752 242.9348 581.2013 244.0827 581.2013 L 259.9814 581.2013 C 265.439 581.2013 269.4224 582.4557 271.9312 584.9646 C 274.4333 587.4735 275.6842 591.4568 275.6842 596.9144 L 275.6842 607.9982 C 275.6842 613.449 274.4436 617.4288 271.9622 619.9377 C 269.4739 622.4466 265.4803 623.701 259.9814 623.701 Z M 245.7942 620.2676 L 259.9814 620.2676 C 263.0196 620.2676 265.4287 619.8724 267.209 619.0819 C 268.9893 618.2914 270.2746 617.0061 271.0651 615.2258 C 271.8625 613.4387 272.2612 611.0294 272.2612 607.9982 L 272.2612 596.9144 C 272.2612 593.8763 271.8625 591.4671 271.0651 589.6868 C 270.2746 587.9065 268.9893 586.6177 267.209 585.8204 C 265.4287 585.0299 263.0196 584.6347 259.9814 584.6347 L 245.7942 584.6347 Z M 288.8198 623.701 C 288.2905 623.701 287.8712 623.5463 287.5619 623.237 C 287.2595 622.9277 287.1082 622.5119 287.1082 621.9895 L 287.1082 582.9231 C 287.1082 582.3939 287.2595 581.9746 287.5619 581.6652 C 287.8712 581.3559 288.2905 581.2013 288.8198 581.2013 C 289.349 581.2013 289.7683 581.3559 290.0776 581.6652 C 290.38 581.9746 290.5313 582.3939 290.5313 582.9231 L 290.5313 621.9895 C 290.5313 622.5119 290.38 622.9277 290.0776 623.237 C 289.7683 623.5463 289.349 623.701 288.8198 623.701 Z M 313.6989 623.6391 C 309.7809 623.6391 306.8768 622.7696 304.9866 621.0306 C 303.0963 619.2916 302.0859 616.5318 301.9553 612.7513 C 301.9071 612.222 302.0481 611.7924 302.378 611.4625 C 302.7079 611.1325 303.1376 610.9676 303.6668 610.9676 C 304.148 610.9676 304.5432 611.1222 304.8525 611.4316 C 305.1618 611.734 305.3371 612.1498 305.3784 612.6791 C 305.4678 615.4973 306.1276 617.4563 307.358 618.5561 C 308.5952 619.6559 310.7089 620.2058 313.6989 620.2058 L 323.1948 620.2058 C 326.3635 620.2058 328.5529 619.6009 329.7626 618.3911 C 330.9723 617.1814 331.5772 615.0127 331.5772 611.8852 C 331.5772 608.7646 330.962 606.5994 329.7317 605.3896 C 328.5013 604.1799 326.3223 603.575 323.1948 603.575 L 314.1629 603.575 C 310.2861 603.575 307.4474 602.6745 305.6464 600.8736 C 303.8455 599.0659 302.9451 596.2271 302.9451 592.3572 C 302.9451 588.5286 303.8455 585.7138 305.6464 583.9129 C 307.4474 582.1052 310.2621 581.2013 314.0907 581.2013 L 323.401 581.2013 C 327.0922 581.2013 329.8279 582.0399 331.6082 583.717 C 333.3953 585.3873 334.3542 587.9821 334.4848 591.5014 C 334.526 592.0307 334.3817 592.4466 334.0518 592.749 C 333.7218 593.0583 333.2922 593.213 332.7629 593.213 C 332.2818 593.213 331.8866 593.0583 331.5772 592.749 C 331.2679 592.4466 331.0926 592.0513 331.0514 591.5633 C 331.0102 589.0132 330.4053 587.2226 329.2368 586.1915 C 328.0683 585.1536 326.123 584.6347 323.401 584.6347 L 314.0907 584.6347 C 311.2313 584.6347 309.2311 585.2086 308.09 586.3565 C 306.9421 587.4975 306.3682 589.4978 306.3682 592.3572 C 306.3682 595.2579 306.9421 597.2822 308.09 598.4301 C 309.2311 599.5711 311.2553 600.1416 314.1629 600.1416 L 323.1948 600.1416 C 327.2915 600.1416 330.285 601.0867 332.1752 602.977 C 334.0655 604.8741 335.0106 607.8435 335.0106 611.8852 C 335.0106 615.9338 334.0655 618.9032 332.1752 620.7935 C 330.285 622.6906 327.2915 623.6391 323.1948 623.6391 Z M 358.9618 623.7629 C 358.4806 623.7629 358.0751 623.5979 357.7452 623.268 C 357.4153 622.938 357.2503 622.5325 357.2503 622.0513 L 357.2503 584.6347 L 343.1971 584.6347 C 342.7091 584.6347 342.3001 584.4697 341.9702 584.1398 C 341.6403 583.8098 341.4753 583.4043 341.4753 582.9231 C 341.4753 582.3939 341.6403 581.9746 341.9702 581.6652 C 342.3001 581.3559 342.7091 581.2013 343.1971 581.2013 L 374.7368 581.2013 C 375.2661 581.2013 375.682 581.3559 375.9844 581.6652 C 376.2937 581.9746 376.4484 582.3939 376.4484 582.9231 C 376.4484 583.4043 376.2937 583.8098 375.9844 584.1398 C 375.682 584.4697 375.2661 584.6347 374.7368 584.6347 L 360.6837 584.6347 L 360.6837 622.0513 C 360.6837 622.5325 360.529 622.938 360.2197 623.268 C 359.9104 623.5979 359.4911 623.7629 358.9618 623.7629 Z M 413.2052 621.4533 C 413.4251 621.8108 413.5351 622.1407 413.5351 622.4431 C 413.5351 622.9724 413.2258 623.4123 412.6072 623.7629 C 412.2566 623.9828 411.9267 624.0928 411.6174 624.0928 C 411.0469 624.0928 410.6069 623.8075 410.2976 623.237 L 399.4098 606.0186 L 387.2744 606.0186 L 387.2744 621.9895 C 387.2744 623.1305 386.7004 623.701 385.5525 623.701 C 384.4114 623.701 383.841 623.1305 383.841 621.9895 L 383.841 582.9231 C 383.841 581.7752 384.4114 581.2013 385.5525 581.2013 L 400.9976 581.2013 C 404.7369 581.2013 407.5756 582.1705 409.514 584.1088 C 411.4455 586.0472 412.4113 588.886 412.4113 592.6253 L 412.4113 594.6049 C 412.4113 597.9455 411.6517 600.5609 410.1326 602.4511 C 408.6204 604.3414 406.3899 605.4859 403.4412 605.8845 Z M 387.2744 584.6347 L 387.2744 602.5852 L 400.9976 602.5852 C 403.8157 602.5852 405.8504 601.9597 407.1014 600.7087 C 408.3523 599.4508 408.9779 597.4162 408.9779 594.6049 L 408.9779 592.6253 C 408.9779 589.8483 408.3523 587.824 407.1014 586.5524 C 405.8504 585.2739 403.8157 584.6347 400.9976 584.6347 Z M 424.6188 623.701 C 424.0896 623.701 423.6737 623.5463 423.3713 623.237 C 423.062 622.9277 422.9073 622.5119 422.9073 621.9895 L 422.9073 582.9231 C 422.9073 582.3939 423.062 581.9746 423.3713 581.6652 C 423.6737 581.3559 424.0896 581.2013 424.6188 581.2013 C 425.1481 581.2013 425.5674 581.3559 425.8767 581.6652 C 426.186 581.9746 426.3407 582.3939 426.3407 582.9231 L 426.3407 621.9895 C 426.3407 622.5119 426.186 622.9277 425.8767 623.237 C 425.5674 623.5463 425.1481 623.701 424.6188 623.701 Z M 464.077 599.9457 C 467.9056 601.5266 469.8199 604.9566 469.8199 610.2355 L 469.8199 612.3492 C 469.8199 616.0884 468.8541 618.917 466.9227 620.8347 C 464.9843 622.7456 462.1455 623.701 458.4062 623.701 L 440.3217 623.701 C 439.1806 623.701 438.6101 623.1305 438.6101 621.9895 L 438.6101 582.9231 C 438.6101 581.7752 439.1806 581.2013 440.3217 581.2013 L 457.5505 581.2013 C 460.7604 581.2013 463.2006 582.0261 464.8709 583.6758 C 466.5412 585.3255 467.3763 587.7141 467.3763 590.8416 L 467.3763 592.6253 C 467.3763 596.0965 466.2765 598.5366 464.077 599.9457 Z M 442.0435 584.6347 L 442.0435 598.9559 L 458.4062 598.9559 L 458.798 598.9559 L 458.9321 598.9559 C 462.2796 598.7772 463.9533 596.667 463.9533 592.6253 L 463.9533 590.8416 C 463.9533 588.642 463.4583 587.0576 462.4685 586.0884 C 461.4787 585.1193 459.8394 584.6347 457.5505 584.6347 Z M 466.3865 612.3492 L 466.3865 610.2355 C 466.3865 607.4655 465.761 605.4652 464.51 604.2348 C 463.259 603.0045 461.2244 602.3893 458.4062 602.3893 L 442.0435 602.3893 L 442.0435 620.2676 L 458.4062 620.2676 C 461.2244 620.2676 463.259 619.6421 464.51 618.3911 C 465.761 617.1332 466.3865 615.1193 466.3865 612.3492 Z M 492.5854 623.701 C 487.8357 623.701 484.3611 622.6115 482.1615 620.4326 C 479.962 618.2536 478.8622 614.7687 478.8622 609.9778 L 478.8622 582.9231 C 478.8622 582.4351 479.0271 582.0261 479.3571 581.6962 C 479.687 581.3662 480.0925 581.2013 480.5737 581.2013 C 481.1029 581.2013 481.5223 581.3662 481.8316 581.6962 C 482.1409 582.0261 482.2956 582.4351 482.2956 582.9231 L 482.2956 609.9778 C 482.2956 613.7583 483.0654 616.4184 484.6051 617.9581 C 486.1448 619.4978 488.8049 620.2676 492.5854 620.2676 L 500.5038 620.2676 C 503.1021 620.2676 505.1366 619.9377 506.6076 619.2778 C 508.0854 618.6179 509.1543 617.5422 509.8142 616.0506 C 510.4741 614.5522 510.804 612.5279 510.804 609.9778 L 510.804 582.9231 C 510.804 582.4351 510.969 582.0261 511.2989 581.6962 C 511.6288 581.3662 512.0343 581.2013 512.5155 581.2013 C 513.0448 581.2013 513.4641 581.3662 513.7734 581.6962 C 514.0758 582.0261 514.2271 582.4351 514.2271 582.9231 L 514.2271 609.9778 C 514.2271 614.7687 513.1411 618.2536 510.969 620.4326 C 508.79 622.6115 505.3016 623.701 500.5038 623.701 Z M 538.3845 623.7629 C 537.8965 623.7629 537.4875 623.5979 537.1575 623.268 C 536.8276 622.938 536.6626 622.5325 536.6626 622.0513 L 536.6626 584.6347 L 522.6095 584.6347 C 522.1283 584.6347 521.7228 584.4697 521.3928 584.1398 C 521.0629 583.8098 520.8979 583.4043 520.8979 582.9231 C 520.8979 582.3939 521.0629 581.9746 521.3928 581.6652 C 521.7228 581.3559 522.1283 581.2013 522.6095 581.2013 L 554.1492 581.2013 C 554.6784 581.2013 555.0977 581.3559 555.407 581.6652 C 555.7164 581.9746 555.871 582.3939 555.871 582.9231 C 555.871 583.4043 555.7164 583.8098 555.407 584.1398 C 555.0977 584.4697 554.6784 584.6347 554.1492 584.6347 L 540.096 584.6347 L 540.096 622.0513 C 540.096 622.5325 539.9413 622.938 539.632 623.268 C 539.3296 623.5979 538.9137 623.7629 538.3845 623.7629 Z M 589.7203 620.2676 C 590.8613 620.2676 591.4318 620.8416 591.4318 621.9895 C 591.4318 623.1305 590.8613 623.701 589.7203 623.701 L 564.9751 623.701 C 563.8341 623.701 563.2636 623.1305 563.2636 621.9895 L 563.2636 582.9231 C 563.2636 581.7752 563.8341 581.2013 564.9751 581.2013 L 589.7203 581.2013 C 590.8613 581.2013 591.4318 581.7752 591.4318 582.9231 C 591.4318 584.0642 590.8613 584.6347 589.7203 584.6347 L 566.6867 584.6347 L 566.6867 600.4715 L 581.9359 600.4715 C 583.0769 600.4715 583.6474 601.0455 583.6474 602.1934 C 583.6474 603.3344 583.0769 603.9049 581.9359 603.9049 L 566.6867 603.9049 L 566.6867 620.2676 Z M 601.9278 623.701 C 600.7868 623.701 600.2163 623.1305 600.2163 621.9895 L 600.2163 582.9231 C 600.2163 581.7752 600.7868 581.2013 601.9278 581.2013 L 617.8266 581.2013 C 623.2842 581.2013 627.2676 582.4557 629.7764 584.9646 C 632.2852 587.4735 633.5397 591.4568 633.5397 596.9144 L 633.5397 607.9982 C 633.5397 613.449 632.2956 617.4288 629.8073 619.9377 C 627.3191 622.4466 623.3255 623.701 617.8266 623.701 Z M 603.6394 620.2676 L 617.8266 620.2676 C 620.8648 620.2676 623.2739 619.8724 625.0542 619.0819 C 626.8345 618.2914 628.1233 617.0061 628.9206 615.2258 C 629.7111 613.4387 630.1063 611.0294 630.1063 607.9982 L 630.1063 596.9144 C 630.1063 593.8763 629.7111 591.4671 628.9206 589.6868 C 628.1233 587.9065 626.8345 586.6177 625.0542 585.8204 C 623.2739 585.0299 620.8648 584.6347 617.8266 584.6347 L 603.6394 584.6347 Z M 672.338 623.6391 C 668.42 623.6391 665.5159 622.7696 663.6256 621.0306 C 661.7354 619.2916 660.725 616.5318 660.5944 612.7513 C 660.5462 612.222 660.6872 611.7924 661.0171 611.4625 C 661.347 611.1325 661.7767 610.9676 662.3059 610.9676 C 662.7871 610.9676 663.1823 611.1222 663.4916 611.4316 C 663.8009 611.734 663.9762 612.1498 664.0174 612.6791 C 664.1068 615.4973 664.7667 617.4563 665.997 618.5561 C 667.2343 619.6559 669.3479 620.2058 672.338 620.2058 L 681.8339 620.2058 C 685.0026 620.2058 687.192 619.6009 688.4017 618.3911 C 689.6114 617.1814 690.2163 615.0127 690.2163 611.8852 C 690.2163 608.7646 689.6011 606.5994 688.3707 605.3896 C 687.1404 604.1799 684.9614 603.575 681.8339 603.575 L 672.802 603.575 C 668.9252 603.575 666.0864 602.6745 664.2855 600.8736 C 662.4846 599.0659 661.5842 596.2271 661.5842 592.3572 C 661.5842 588.5286 662.4846 585.7138 664.2855 583.9129 C 666.0864 582.1052 668.9012 581.2013 672.7298 581.2013 L 682.0401 581.2013 C 685.7313 581.2013 688.4669 582.0399 690.2473 583.717 C 692.0344 585.3873 692.9932 587.9821 693.1239 591.5014 C 693.1651 592.0307 693.0208 592.4466 692.6908 592.749 C 692.3609 593.0583 691.9313 593.213 691.402 593.213 C 690.9208 593.213 690.5256 593.0583 690.2163 592.749 C 689.907 592.4466 689.7317 592.0513 689.6905 591.5633 C 689.6492 589.0132 689.0443 587.2226 687.8758 586.1915 C 686.7074 585.1536 684.7621 584.6347 682.0401 584.6347 L 672.7298 584.6347 C 669.8704 584.6347 667.8701 585.2086 666.7291 586.3565 C 665.5812 587.4975 665.0072 589.4978 665.0072 592.3572 C 665.0072 595.2579 665.5812 597.2822 666.7291 598.4301 C 667.8701 599.5711 669.8944 600.1416 672.802 600.1416 L 681.8339 600.1416 C 685.9306 600.1416 688.9241 601.0867 690.8143 602.977 C 692.7045 604.8741 693.6497 607.8435 693.6497 611.8852 C 693.6497 615.9338 692.7045 618.9032 690.8143 620.7935 C 688.9241 622.6906 685.9306 623.6391 681.8339 623.6391 Z M 717.6009 623.7629 C 717.1197 623.7629 716.7142 623.5979 716.3843 623.268 C 716.0543 622.938 715.8894 622.5325 715.8894 622.0513 L 715.8894 584.6347 L 701.8362 584.6347 C 701.3482 584.6347 700.9392 584.4697 700.6093 584.1398 C 700.2793 583.8098 700.1144 583.4043 700.1144 582.9231 C 700.1144 582.3939 700.2793 581.9746 700.6093 581.6652 C 700.9392 581.3559 701.3482 581.2013 701.8362 581.2013 L 733.3759 581.2013 C 733.9051 581.2013 734.3211 581.3559 734.6235 581.6652 C 734.9328 581.9746 735.0874 582.3939 735.0874 582.9231 C 735.0874 583.4043 734.9328 583.8098 734.6235 584.1398 C 734.3211 584.4697 733.9051 584.6347 733.3759 584.6347 L 719.3228 584.6347 L 719.3228 622.0513 C 719.3228 622.5325 719.1681 622.938 718.8588 623.268 C 718.5495 623.5979 718.1301 623.7629 717.6009 623.7629 Z M 755.3475 623.701 C 750.5497 623.701 747.0648 622.6115 744.8927 620.4326 C 742.7138 618.2536 741.6243 614.7687 741.6243 609.9778 L 741.6243 594.9348 C 741.6243 590.137 742.7241 586.6383 744.9236 584.4388 C 747.1232 582.2392 750.5772 581.16 755.2856 581.2013 L 763.2659 581.2013 C 768.0637 581.2013 771.5486 582.3011 773.7207 584.5006 C 775.8997 586.7002 776.9892 590.1783 776.9892 594.9348 L 776.9892 609.9778 C 776.9892 614.7687 775.8997 618.2536 773.7207 620.4326 C 771.5486 622.6115 768.0637 623.701 763.2659 623.701 Z M 755.3475 620.2676 L 763.2659 620.2676 C 767.0465 620.2676 769.7066 619.4978 771.2462 617.9581 C 772.7859 616.4184 773.5558 613.7583 773.5558 609.9778 L 773.5558 594.9348 C 773.5558 591.1474 772.7859 588.4839 771.2462 586.9442 C 769.7066 585.4045 767.0465 584.6347 763.2659 584.6347 L 755.2856 584.6347 C 752.7286 584.5934 750.7147 584.9027 749.2437 585.5626 C 747.7727 586.2225 746.7073 587.2982 746.0475 588.7898 C 745.3876 590.2882 745.0577 592.3366 745.0577 594.9348 L 745.0577 609.9778 C 745.0577 613.7583 745.8275 616.4184 747.3672 617.9581 C 748.9069 619.4978 751.567 620.2676 755.3475 620.2676 Z M 817.767 621.4533 C 817.987 621.8108 818.097 622.1407 818.097 622.4431 C 818.097 622.9724 817.7911 623.4123 817.1793 623.7629 C 816.8288 623.9828 816.4988 624.0928 816.1895 624.0928 C 815.6191 624.0928 815.1791 623.8075 814.8698 623.237 L 803.9819 606.0186 L 791.8362 606.0186 L 791.8362 621.9895 C 791.8362 623.1305 791.2657 623.701 790.1247 623.701 C 788.9768 623.701 788.4028 623.1305 788.4028 621.9895 L 788.4028 582.9231 C 788.4028 581.7752 788.9768 581.2013 790.1247 581.2013 L 805.5594 581.2013 C 809.2987 581.2013 812.1375 582.1705 814.0759 584.1088 C 816.0143 586.0472 816.9834 588.886 816.9834 592.6253 L 816.9834 594.6049 C 816.9834 597.9455 816.2239 600.5609 814.7048 602.4511 C 813.1858 604.3414 810.9518 605.4859 808.003 605.8845 Z M 791.8362 584.6347 L 791.8362 602.5852 L 805.5594 602.5852 C 808.3776 602.5852 810.4123 601.9597 811.6632 600.7087 C 812.9211 599.4508 813.5501 597.4162 813.5501 594.6049 L 813.5501 592.6253 C 813.5501 589.8483 812.9211 587.824 811.6632 586.5524 C 810.4123 585.2739 808.3776 584.6347 805.5594 584.6347 Z M 859.9368 621.2574 C 860.0675 621.5667 860.1327 621.852 860.1327 622.1132 C 860.1327 622.6906 859.7581 623.1546 859.0089 623.5051 C 858.7477 623.6357 858.4624 623.701 858.1531 623.701 C 857.5414 623.701 857.1014 623.3504 856.8334 622.6493 L 852.4102 612.2151 L 852.2143 612.2151 L 830.8407 612.2151 L 826.4175 622.6493 C 826.1082 623.3504 825.6236 623.701 824.9637 623.701 C 824.7438 623.701 824.4585 623.6357 824.108 623.5051 C 823.3999 623.237 823.046 622.7524 823.046 622.0513 C 823.046 621.7008 823.0906 621.4361 823.18 621.2574 L 839.5427 582.521 C 839.9002 581.6412 840.5601 581.2013 841.5223 581.2013 L 841.6564 581.2013 C 842.5362 581.2013 843.1754 581.6412 843.5741 582.521 Z M 841.5945 586.6143 L 832.2223 608.7921 L 850.9667 608.7921 Z M 880.7846 623.701 C 876.0349 623.701 872.5602 622.6012 870.3607 620.4017 C 868.1612 618.2021 867.0613 614.7275 867.0613 609.9778 L 867.0613 594.9348 C 867.0613 590.137 868.1509 586.6486 870.3298 584.4697 C 872.5087 582.2908 875.973 581.2013 880.7227 581.2013 L 888.703 581.2013 C 892.7516 581.2013 895.7657 582.0502 897.7453 583.748 C 899.7249 585.4389 900.8247 588.154 901.0446 591.8932 C 901.134 593.0411 900.5634 593.6151 899.3331 593.6151 C 898.2745 593.6151 897.7006 593.0411 897.6112 591.8932 C 897.4394 589.2125 896.6936 587.3326 895.3739 586.2534 C 894.0541 585.1742 891.8305 584.6347 888.703 584.6347 L 880.7227 584.6347 C 878.1726 584.6347 876.1586 584.9646 874.6808 585.6245 C 873.2098 586.2843 872.1444 587.3532 871.4845 588.831 C 870.8247 590.302 870.4947 592.3366 870.4947 594.9348 L 870.4947 609.9778 C 870.4947 612.5691 870.8247 614.6037 871.4845 616.0816 C 872.1444 617.5525 873.2098 618.6179 874.6808 619.2778 C 876.1586 619.9377 878.1932 620.2676 880.7846 620.2676 L 888.703 620.2676 C 890.9919 620.2676 892.7859 619.9927 894.0851 619.4428 C 895.3842 618.8929 896.3087 617.9684 896.8586 616.6693 C 897.4084 615.377 897.6834 613.5864 897.6834 611.2975 L 897.6834 607.1424 L 890.4249 607.0702 C 889.277 607.0702 888.703 606.4997 888.703 605.3587 C 888.703 604.2108 889.277 603.6368 890.4249 603.6368 L 899.395 603.709 C 900.5428 603.709 901.1168 604.2795 901.1168 605.4206 L 901.1168 611.2975 C 901.1168 615.6485 900.1373 618.8035 898.1783 620.7625 C 896.2193 622.7215 893.0609 623.701 888.703 623.701 Z M 938.3273 620.2676 C 939.4751 620.2676 940.0491 620.8416 940.0491 621.9895 C 940.0491 623.1305 939.4751 623.701 938.3273 623.701 L 913.5821 623.701 C 912.4411 623.701 911.8706 623.1305 911.8706 621.9895 L 911.8706 582.9231 C 911.8706 581.7752 912.4411 581.2013 913.5821 581.2013 L 938.3273 581.2013 C 939.4751 581.2013 940.0491 581.7752 940.0491 582.9231 C 940.0491 584.0642 939.4751 584.6347 938.3273 584.6347 L 915.304 584.6347 L 915.304 600.4715 L 930.5429 600.4715 C 931.6839 600.4715 932.2544 601.0455 932.2544 602.1934 C 932.2544 603.3344 931.6839 603.9049 930.5429 603.9049 L 915.304 603.9049 L 915.304 620.2676 Z" fill="#01508f"/>
      </g>
      <g id="Graphic_81">
        <path d="M 97.32356 623.701 C 92.57387 623.701 89.09925 622.60125 86.89968 620.4017 C 84.70012 618.2021 83.60034 614.7275 83.60034 609.9778 L 83.60034 594.93484 C 83.60034 590.13705 84.68981 586.6487 86.86875 584.4697 C 89.0477 582.2908 92.51201 581.2013 97.2617 581.2013 L 105.24199 581.2013 C 109.29057 581.2013 112.30466 582.0502 114.28427 583.748 C 116.26387 585.4389 117.36366 588.154 117.58361 591.89326 C 117.67297 593.04116 117.10245 593.6151 115.87208 593.6151 C 114.81353 593.6151 114.23959 593.04116 114.15023 591.89326 C 113.97839 589.21254 113.2326 587.3326 111.91286 586.25344 C 110.59312 585.1743 108.3695 584.6347 105.24199 584.6347 L 97.2617 584.6347 C 94.71158 584.6347 92.6976 584.9646 91.21977 585.6245 C 89.74881 586.2844 88.68339 587.3532 88.02352 588.83106 C 87.36365 590.302 87.03372 592.3366 87.03372 594.93484 L 87.03372 609.9778 C 87.03372 612.5692 87.36365 614.6038 88.02352 616.0816 C 88.68339 617.55256 89.74881 618.618 91.21977 619.27784 C 92.6976 619.9377 94.7322 620.26764 97.32356 620.26764 L 105.24199 620.26764 C 107.53091 620.26764 109.32493 619.9927 110.62405 619.4428 C 111.92317 618.8929 112.84768 617.9684 113.39757 616.6693 C 113.94745 615.37705 114.2224 613.5865 114.2224 611.29754 L 114.2224 607.1424 L 106.96384 607.07026 C 105.81594 607.07026 105.24199 606.49975 105.24199 605.3587 C 105.24199 604.2108 105.81594 603.6369 106.96384 603.6369 L 115.93394 603.70905 C 117.07497 603.70905 117.64548 604.2796 117.64548 605.4206 L 117.64548 611.29754 C 117.64548 615.64856 116.66942 618.80356 114.7173 620.76255 C 112.75832 622.7215 109.59988 623.701 105.24199 623.701 Z M 154.86624 620.26764 C 156.00726 620.26764 156.57777 620.8416 156.57777 621.9895 C 156.57777 623.1305 156.00726 623.701 154.86624 623.701 L 130.12113 623.701 C 128.9801 623.701 128.4096 623.1305 128.4096 621.9895 L 128.4096 582.92316 C 128.4096 581.77526 128.9801 581.2013 130.12113 581.2013 L 154.86624 581.2013 C 156.00726 581.2013 156.57777 581.77526 156.57777 582.92316 C 156.57777 584.0642 156.00726 584.6347 154.86624 584.6347 L 131.83267 584.6347 L 131.83267 600.47156 L 147.08184 600.47156 C 148.22287 600.47156 148.79338 601.0455 148.79338 602.1934 C 148.79338 603.3344 148.22287 603.90494 147.08184 603.90494 L 131.83267 603.90494 L 131.83267 620.26764 Z M 178.22974 623.701 C 173.43194 623.701 169.94356 622.61156 167.76462 620.4326 C 165.58568 618.2537 164.4962 614.7687 164.4962 609.9778 L 164.4962 594.93484 C 164.4962 590.13705 165.596 586.6384 167.79555 584.4388 C 169.99511 582.23924 173.44912 581.1601 178.15757 581.2013 L 186.14817 581.2013 C 190.93913 581.2013 194.42407 582.3011 196.60298 584.50066 C 198.78189 586.7002 199.8714 590.1783 199.8714 594.93484 L 199.8714 609.9778 C 199.8714 614.7687 198.78189 618.2537 196.60298 620.4326 C 194.42407 622.61156 190.93913 623.701 186.14817 623.701 Z M 178.22974 620.26764 L 186.14817 620.26764 C 189.9287 620.26764 192.5888 619.4978 194.12847 617.9581 C 195.66813 616.4184 196.438 613.7583 196.438 609.9778 L 196.438 594.93484 C 196.438 591.1475 195.66813 588.48394 194.12847 586.94424 C 192.5888 585.40455 189.9287 584.6347 186.14817 584.6347 L 178.15757 584.6347 C 175.60745 584.59346 173.5969 584.9028 172.12595 585.56264 C 170.64812 586.2225 169.57926 587.2982 168.9194 588.7898 C 168.25952 590.2883 167.92959 592.3366 167.92959 594.93484 L 167.92959 609.9778 C 167.92959 613.7583 168.69944 616.4184 170.23913 617.9581 C 171.77882 619.4978 174.44237 620.26764 178.22974 620.26764 Z M 211.615 607.47236 C 211.13382 607.47236 210.73862 607.3177 210.4293 607.0084 C 210.12 606.6991 209.96533 606.3245 209.96533 605.88455 C 209.96533 605.44465 210.12 605.07 210.4293 604.7607 C 210.73862 604.4514 211.13382 604.29674 211.615 604.29674 L 229.82328 604.29674 C 230.26323 604.29674 230.6378 604.4514 230.94712 604.7607 C 231.25643 605.07 231.4111 605.44465 231.4111 605.88455 C 231.4111 606.3245 231.25643 606.6991 230.94712 607.0084 C 230.6378 607.3177 230.26323 607.47236 229.82328 607.47236 Z M 244.08265 623.701 C 242.93478 623.701 242.3608 623.1305 242.3608 621.9895 L 242.3608 582.92316 C 242.3608 581.77526 242.93478 581.2013 244.08265 581.2013 L 259.98138 581.2013 C 265.439 581.2013 269.42236 582.45575 271.9312 584.9646 C 274.43324 587.4735 275.6842 591.4568 275.6842 596.91445 L 275.6842 607.9982 C 275.6842 613.449 274.44355 617.4288 271.96213 619.9377 C 269.4739 622.4466 265.48025 623.701 259.98138 623.701 Z M 245.79418 620.26764 L 259.98138 620.26764 C 263.01956 620.26764 265.4287 619.8724 267.209 619.08194 C 268.9893 618.2915 270.27462 617.0061 271.06512 615.2258 C 271.86243 613.4387 272.26113 611.0295 272.26113 607.9982 L 272.26113 596.91445 C 272.26113 593.8763 271.86243 591.4671 271.06512 589.6868 C 270.27462 587.90655 268.9893 586.61774 267.209 585.8204 C 265.4287 585.0299 263.01956 584.6347 259.98138 584.6347 L 245.79418 584.6347 Z M 288.81973 623.701 C 288.2905 623.701 287.87117 623.5464 287.56186 623.23706 C 287.25945 622.92774 287.1082 622.5119 287.1082 621.9895 L 287.1082 582.92316 C 287.1082 582.3939 287.25945 581.9746 287.56186 581.6653 C 287.87117 581.356 288.2905 581.2013 288.81973 581.2013 C 289.34897 581.2013 289.7683 581.356 290.0776 581.6653 C 290.38 581.9746 290.53127 582.3939 290.53127 582.92316 L 290.53127 621.9895 C 290.53127 622.5119 290.38 622.92774 290.0776 623.23706 C 289.7683 623.5464 289.34897 623.701 288.81973 623.701 Z M 313.69887 623.6392 C 309.7809 623.6392 306.87675 622.76965 304.98653 621.0306 C 303.0963 619.2916 302.0859 616.5318 301.95526 612.7513 C 301.9071 612.22205 302.04805 611.79245 302.378 611.4625 C 302.70792 611.1326 303.13756 610.9676 303.6668 610.9676 C 304.148 610.9676 304.5432 611.1223 304.8525 611.4316 C 305.1618 611.734 305.3371 612.1499 305.37833 612.67915 C 305.46772 615.49734 306.1276 617.4563 307.35794 618.5561 C 308.5952 619.6559 310.70884 620.2058 313.69887 620.2058 L 323.1948 620.2058 C 326.36352 620.2058 328.55284 619.6009 329.76257 618.39114 C 330.9723 617.1814 331.5772 615.01275 331.5772 611.88524 C 331.5772 608.7646 330.962 606.5994 329.73164 605.38965 C 328.5013 604.1799 326.32228 603.575 323.1948 603.575 L 314.16284 603.575 C 310.2861 603.575 307.44733 602.6746 305.6464 600.8737 C 303.84548 599.0659 302.94506 596.2271 302.94506 592.3572 C 302.94506 588.5286 303.84548 585.71386 305.6464 583.913 C 307.44733 582.1052 310.2621 581.2013 314.09067 581.2013 L 323.401 581.2013 C 327.09216 581.2013 329.82783 582.0399 331.60814 583.7171 C 333.39525 585.38736 334.35413 587.98216 334.48476 591.5015 C 334.526 592.03074 334.38166 592.4466 334.05172 592.749 C 333.7218 593.05834 333.29215 593.213 332.7629 593.213 C 332.28172 593.213 331.88652 593.05834 331.5772 592.749 C 331.2679 592.4466 331.0926 592.05136 331.05138 591.5633 C 331.01014 589.0132 330.40522 587.2226 329.23674 586.1916 C 328.06825 585.15366 326.12298 584.6347 323.401 584.6347 L 314.09067 584.6347 C 311.23127 584.6347 309.23104 585.20865 308.09 586.35655 C 306.94212 587.4976 306.36814 589.4978 306.36814 592.3572 C 306.36814 595.2579 306.94212 597.2822 308.09 598.4301 C 309.23104 599.5711 311.2553 600.1416 314.16284 600.1416 L 323.1948 600.1416 C 327.29146 600.1416 330.285 601.08676 332.1752 602.977 C 334.06543 604.8741 335.0106 607.84354 335.0106 611.88524 C 335.0106 615.9338 334.06543 618.9032 332.1752 620.7935 C 330.285 622.6906 327.29146 623.6392 323.1948 623.6392 Z M 358.9618 623.7629 C 358.4806 623.7629 358.0751 623.5979 357.74516 623.268 C 357.41522 622.93805 357.25026 622.5325 357.25026 622.05135 L 357.25026 584.6347 L 343.1971 584.6347 C 342.7091 584.6347 342.3001 584.4697 341.97015 584.1398 C 341.6402 583.80986 341.47525 583.4043 341.47525 582.92316 C 341.47525 582.3939 341.6402 581.9746 341.97015 581.6653 C 342.3001 581.356 342.7091 581.2013 343.1971 581.2013 L 374.7368 581.2013 C 375.26603 581.2013 375.68196 581.356 375.98436 581.6653 C 376.29368 581.9746 376.44833 582.3939 376.44833 582.92316 C 376.44833 583.4043 376.29368 583.80986 375.98436 584.1398 C 375.68196 584.4697 375.26603 584.6347 374.7368 584.6347 L 360.68364 584.6347 L 360.68364 622.05135 C 360.68364 622.5325 360.529 622.93805 360.21967 623.268 C 359.91035 623.5979 359.49103 623.7629 358.9618 623.7629 Z M 413.2051 621.45335 C 413.42504 621.8108 413.53506 622.1407 413.53506 622.44315 C 413.53506 622.9724 413.22574 623.4123 412.6071 623.7629 C 412.25656 623.98285 411.92663 624.0928 411.6173 624.0928 C 411.04683 624.0928 410.6069 623.8076 410.29757 623.23706 L 399.40973 606.0186 L 387.2743 606.0186 L 387.2743 621.9895 C 387.2743 623.1305 386.70033 623.701 385.55247 623.701 C 384.4114 623.701 383.84093 623.1305 383.84093 621.9895 L 383.84093 582.92316 C 383.84093 581.77526 384.4114 581.2013 385.55247 581.2013 L 400.99754 581.2013 C 404.73683 581.2013 407.5756 582.1705 409.514 584.10886 C 411.44544 586.0472 412.4112 588.88605 412.4112 592.6253 L 412.4112 594.6049 C 412.4112 597.9455 411.65165 600.5609 410.1326 602.4512 C 408.62037 604.3414 406.3899 605.4859 403.4411 605.88455 Z M 387.2743 584.6347 L 387.2743 602.5852 L 400.99754 602.5852 C 403.8157 602.5852 405.85036 601.9597 407.10133 600.7087 C 408.3523 599.4508 408.97783 597.4162 408.97783 594.6049 L 408.97783 592.6253 C 408.97783 589.84835 408.3523 587.8241 407.10133 586.55244 C 405.85036 585.27395 403.8157 584.6347 400.99754 584.6347 Z M 424.6188 623.701 C 424.08957 623.701 423.67364 623.5464 423.37124 623.23706 C 423.0619 622.92774 422.90727 622.5119 422.90727 621.9895 L 422.90727 582.92316 C 422.90727 582.3939 423.0619 581.9746 423.37124 581.6653 C 423.67364 581.356 424.08957 581.2013 424.6188 581.2013 C 425.14804 581.2013 425.56736 581.356 425.8767 581.6653 C 426.186 581.9746 426.34065 582.3939 426.34065 582.92316 L 426.34065 621.9895 C 426.34065 622.5119 426.186 622.92774 425.8767 623.23706 C 425.56736 623.5464 425.14804 623.701 424.6188 623.701 Z M 464.07693 599.9457 C 467.9055 601.5267 469.81986 604.9566 469.81986 610.2356 L 469.81986 612.3492 C 469.81986 616.0885 468.8541 618.917 466.9226 620.8347 C 464.98425 622.7456 462.1455 623.701 458.4062 623.701 L 440.32163 623.701 C 439.18057 623.701 438.6101 623.1305 438.6101 621.9895 L 438.6101 582.92316 C 438.6101 581.77526 439.18057 581.2013 440.32163 581.2013 L 457.5504 581.2013 C 460.76037 581.2013 463.20054 582.02615 464.87084 583.6758 C 466.54113 585.3255 467.3763 587.7141 467.3763 590.8416 L 467.3763 592.6253 C 467.3763 596.0965 466.27646 598.53664 464.07693 599.9457 Z M 442.0435 584.6347 L 442.0435 598.9559 L 458.4062 598.9559 L 458.798 598.9559 L 458.932 598.9559 C 462.2795 598.7772 463.9532 596.667 463.9532 592.6253 L 463.9532 590.8416 C 463.9532 588.642 463.4583 587.05766 462.4685 586.0885 C 461.4787 585.1193 459.83933 584.6347 457.5504 584.6347 Z M 466.3865 612.3492 L 466.3865 610.2356 C 466.3865 607.4655 465.76094 605.4653 464.50997 604.2349 C 463.259 603.0045 461.22434 602.3893 458.4062 602.3893 L 442.0435 602.3893 L 442.0435 620.26764 L 458.4062 620.26764 C 461.22434 620.26764 463.259 619.64215 464.50997 618.39114 C 465.76094 617.1333 466.3865 615.1193 466.3865 612.3492 Z M 492.58535 623.701 C 487.83563 623.701 484.361 622.61156 482.1615 620.4326 C 479.96195 618.2537 478.86213 614.7687 478.86213 609.9778 L 478.86213 582.92316 C 478.86213 582.4351 479.0271 582.02615 479.35703 581.6962 C 479.68697 581.3663 480.0925 581.2013 480.57367 581.2013 C 481.1029 581.2013 481.52223 581.3663 481.83154 581.6962 C 482.14086 582.02615 482.2955 582.4351 482.2955 582.92316 L 482.2955 609.9778 C 482.2955 613.7583 483.0654 616.4184 484.60506 617.9581 C 486.1447 619.4978 488.8048 620.26764 492.58535 620.26764 L 500.5038 620.26764 C 503.102 620.26764 505.1366 619.9377 506.6076 619.27784 C 508.0854 618.618 509.15426 617.54225 509.81413 616.0507 C 510.474 614.5522 510.80394 612.5279 510.80394 609.9778 L 510.80394 582.92316 C 510.80394 582.4351 510.9689 582.02615 511.29884 581.6962 C 511.6288 581.3663 512.0343 581.2013 512.5155 581.2013 C 513.0447 581.2013 513.46404 581.3663 513.77335 581.6962 C 514.07575 582.02615 514.227 582.4351 514.227 582.92316 L 514.227 609.9778 C 514.227 614.7687 513.141 618.2537 510.9689 620.4326 C 508.79 622.61156 505.30155 623.701 500.5038 623.701 Z M 538.3844 623.7629 C 537.8964 623.7629 537.4874 623.5979 537.1575 623.268 C 536.82754 622.93805 536.6626 622.5325 536.6626 622.05135 L 536.6626 584.6347 L 522.6094 584.6347 C 522.1282 584.6347 521.7227 584.4697 521.3928 584.1398 C 521.06284 583.80986 520.8979 583.4043 520.8979 582.92316 C 520.8979 582.3939 521.06284 581.9746 521.3928 581.6653 C 521.7227 581.356 522.1282 581.2013 522.6094 581.2013 L 554.1491 581.2013 C 554.67835 581.2013 555.0977 581.356 555.407 581.6653 C 555.7163 581.9746 555.87096 582.3939 555.87096 582.92316 C 555.87096 583.4043 555.7163 583.80986 555.407 584.1398 C 555.0977 584.4697 554.67835 584.6347 554.1491 584.6347 L 540.09595 584.6347 L 540.09595 622.05135 C 540.09595 622.5325 539.9413 622.93805 539.632 623.268 C 539.3296 623.5979 538.91365 623.7629 538.3844 623.7629 Z M 589.7202 620.26764 C 590.86126 620.26764 591.4317 620.8416 591.4317 621.9895 C 591.4317 623.1305 590.86126 623.701 589.7202 623.701 L 564.9751 623.701 C 563.83403 623.701 563.26356 623.1305 563.26356 621.9895 L 563.26356 582.92316 C 563.26356 581.77526 563.83403 581.2013 564.9751 581.2013 L 589.7202 581.2013 C 590.86126 581.2013 591.4317 581.77526 591.4317 582.92316 C 591.4317 584.0642 590.86126 584.6347 589.7202 584.6347 L 566.6866 584.6347 L 566.6866 600.47156 L 581.9358 600.47156 C 583.07686 600.47156 583.64734 601.0455 583.64734 602.1934 C 583.64734 603.3344 583.07686 603.90494 581.9358 603.90494 L 566.6866 603.90494 L 566.6866 620.26764 Z M 601.9278 623.701 C 600.7867 623.701 600.21625 623.1305 600.21625 621.9895 L 600.21625 582.92316 C 600.21625 581.77526 600.7867 581.2013 601.9278 581.2013 L 617.8265 581.2013 C 623.28415 581.2013 627.2675 582.45575 629.7763 584.9646 C 632.2852 587.4735 633.53965 591.4568 633.53965 596.91445 L 633.53965 607.9982 C 633.53965 613.449 632.2955 617.4288 629.8073 619.9377 C 627.31904 622.4466 623.3254 623.701 617.8265 623.701 Z M 603.6393 620.26764 L 617.8265 620.26764 C 620.8647 620.26764 623.2738 619.8724 625.05414 619.08194 C 626.83445 618.2915 628.12326 617.0061 628.9206 615.2258 C 629.7111 613.4387 630.1063 611.0295 630.1063 607.9982 L 630.1063 596.91445 C 630.1063 593.8763 629.7111 591.4671 628.9206 589.6868 C 628.12326 587.90655 626.83445 586.61774 625.05414 585.8204 C 623.2738 585.0299 620.8647 584.6347 617.8265 584.6347 L 603.6393 584.6347 Z M 672.3379 623.6392 C 668.4199 623.6392 665.5158 622.76965 663.6256 621.0306 C 661.73536 619.2916 660.7249 616.5318 660.5943 612.7513 C 660.54615 612.22205 660.6871 611.79245 661.017 611.4625 C 661.347 611.1326 661.7766 610.9676 662.3058 610.9676 C 662.787 610.9676 663.1822 611.1223 663.4915 611.4316 C 663.80085 611.734 663.9761 612.1499 664.0174 612.67915 C 664.1068 615.49734 664.7666 617.4563 665.997 618.5561 C 667.2342 619.6559 669.3479 620.2058 672.3379 620.2058 L 681.83385 620.2058 C 685.0026 620.2058 687.1919 619.6009 688.4016 618.39114 C 689.6113 617.1814 690.21625 615.01275 690.21625 611.88524 C 690.21625 608.7646 689.601 606.5994 688.3707 605.38965 C 687.1403 604.1799 684.9613 603.575 681.83385 603.575 L 672.8019 603.575 C 668.92515 603.575 666.0864 602.6746 664.28544 600.8737 C 662.4845 599.0659 661.5841 596.2271 661.5841 592.3572 C 661.5841 588.5286 662.4845 585.71386 664.28544 583.913 C 666.0864 582.1052 668.9011 581.2013 672.7297 581.2013 L 682.04006 581.2013 C 685.7312 581.2013 688.4669 582.0399 690.2472 583.7171 C 692.0343 585.38736 692.9932 587.98216 693.1238 591.5015 C 693.16504 592.03074 693.0207 592.4466 692.6908 592.749 C 692.3608 593.05834 691.9312 593.213 691.40195 593.213 C 690.9208 593.213 690.5256 593.05834 690.21625 592.749 C 689.9069 592.4466 689.7317 592.05136 689.6904 591.5633 C 689.6492 589.0132 689.0443 587.2226 687.8758 586.1916 C 686.7073 585.15366 684.762 584.6347 682.04006 584.6347 L 672.7297 584.6347 C 669.8703 584.6347 667.8701 585.20865 666.729 586.35655 C 665.58116 587.4976 665.0072 589.4978 665.0072 592.3572 C 665.0072 595.2579 665.58116 597.2822 666.729 598.4301 C 667.8701 599.5711 669.8943 600.1416 672.8019 600.1416 L 681.83385 600.1416 C 685.9305 600.1416 688.92404 601.08676 690.81426 602.977 C 692.7045 604.8741 693.6496 607.84354 693.6496 611.88524 C 693.6496 615.9338 692.7045 618.9032 690.81426 620.7935 C 688.92404 622.6906 685.9305 623.6392 681.83385 623.6392 Z M 717.6008 623.7629 C 717.11964 623.7629 716.7141 623.5979 716.3842 623.268 C 716.0543 622.93805 715.8893 622.5325 715.8893 622.05135 L 715.8893 584.6347 L 701.8361 584.6347 C 701.34815 584.6347 700.9391 584.4697 700.6092 584.1398 C 700.2793 583.80986 700.1143 583.4043 700.1143 582.92316 C 700.1143 582.3939 700.2793 581.9746 700.6092 581.6653 C 700.9391 581.356 701.34815 581.2013 701.8361 581.2013 L 733.3758 581.2013 C 733.9051 581.2013 734.321 581.356 734.6234 581.6653 C 734.9327 581.9746 735.0874 582.3939 735.0874 582.92316 C 735.0874 583.4043 734.9327 583.80986 734.6234 584.1398 C 734.321 584.4697 733.9051 584.6347 733.3758 584.6347 L 719.3227 584.6347 L 719.3227 622.05135 C 719.3227 622.5325 719.168 622.93805 718.8587 623.268 C 718.5494 623.5979 718.1301 623.7629 717.6008 623.7629 Z M 755.3474 623.701 C 750.5497 623.701 747.0647 622.61156 744.8926 620.4326 C 742.7137 618.2537 741.6242 614.7687 741.6242 609.9778 L 741.6242 594.93484 C 741.6242 590.13705 742.724 586.6384 744.92355 584.4388 C 747.1231 582.23924 750.5771 581.1601 755.2856 581.2013 L 763.2659 581.2013 C 768.0636 581.2013 771.5486 582.3011 773.7207 584.50066 C 775.8996 586.7002 776.9891 590.1783 776.9891 594.93484 L 776.9891 609.9778 C 776.9891 614.7687 775.8996 618.2537 773.7207 620.4326 C 771.5486 622.61156 768.0636 623.701 763.2659 623.701 Z M 755.3474 620.26764 L 763.2659 620.26764 C 767.0464 620.26764 769.7065 619.4978 771.2462 617.9581 C 772.7858 616.4184 773.5557 613.7583 773.5557 609.9778 L 773.5557 594.93484 C 773.5557 591.1475 772.7858 588.48394 771.2462 586.94424 C 769.7065 585.40455 767.0464 584.6347 763.2659 584.6347 L 755.2856 584.6347 C 752.7286 584.59346 750.7146 584.9028 749.2436 585.56264 C 747.7726 586.2225 746.7073 587.2982 746.0474 588.7898 C 745.3875 590.2883 745.0576 592.3366 745.0576 594.93484 L 745.0576 609.9778 C 745.0576 613.7583 745.8275 616.4184 747.3671 617.9581 C 748.9068 619.4978 751.5669 620.26764 755.3474 620.26764 Z M 817.767 621.45335 C 817.9869 621.8108 818.0969 622.1407 818.0969 622.44315 C 818.0969 622.9724 817.791 623.4123 817.1793 623.7629 C 816.8287 623.98285 816.4988 624.0928 816.1895 624.0928 C 815.619 624.0928 815.179 623.8076 814.8697 623.23706 L 803.9819 606.0186 L 791.8361 606.0186 L 791.8361 621.9895 C 791.8361 623.1305 791.2657 623.701 790.1246 623.701 C 788.9767 623.701 788.4028 623.1305 788.4028 621.9895 L 788.4028 582.92316 C 788.4028 581.77526 788.9767 581.2013 790.1246 581.2013 L 805.5594 581.2013 C 809.2987 581.2013 812.1374 582.1705 814.0758 584.10886 C 816.0142 586.0472 816.9834 588.88605 816.9834 592.6253 L 816.9834 594.6049 C 816.9834 597.9455 816.2238 600.5609 814.7047 602.4512 C 813.1857 604.3414 810.9517 605.4859 808.0029 605.88455 Z M 791.8361 584.6347 L 791.8361 602.5852 L 805.5594 602.5852 C 808.3775 602.5852 810.4122 601.9597 811.6632 600.7087 C 812.921 599.4508 813.55 597.4162 813.55 594.6049 L 813.55 592.6253 C 813.55 589.84835 812.921 587.8241 811.6632 586.55244 C 810.4122 585.27395 808.3775 584.6347 805.5594 584.6347 Z M 859.9367 621.25745 C 860.0674 621.56676 860.1326 621.852 860.1326 622.1132 C 860.1326 622.6906 859.7581 623.1546 859.0088 623.5051 C 858.7476 623.6357 858.4623 623.701 858.153 623.701 C 857.5413 623.701 857.1014 623.3505 856.8333 622.64936 L 852.4101 612.2152 L 852.2142 612.2152 L 830.8406 612.2152 L 826.4174 622.64936 C 826.1081 623.3505 825.6235 623.701 824.9637 623.701 C 824.7437 623.701 824.4584 623.6357 824.1079 623.5051 C 823.3999 623.23706 823.0459 622.7525 823.0459 622.05135 C 823.0459 621.7008 823.0906 621.4362 823.1799 621.25745 L 839.5426 582.52105 C 839.9001 581.6412 840.56 581.2013 841.5223 581.2013 L 841.6563 581.2013 C 842.5361 581.2013 843.1753 581.6412 843.574 582.52105 Z M 841.5944 586.6143 L 832.2222 608.7921 L 850.9666 608.7921 Z M 880.7845 623.701 C 876.0348 623.701 872.5601 622.60125 870.3606 620.4017 C 868.1611 618.2021 867.0613 614.7275 867.0613 609.9778 L 867.0613 594.93484 C 867.0613 590.13705 868.1508 586.6487 870.3297 584.4697 C 872.5086 582.2908 875.9729 581.2013 880.7226 581.2013 L 888.7029 581.2013 C 892.7515 581.2013 895.7656 582.0502 897.7452 583.748 C 899.7248 585.4389 900.8246 588.154 901.0445 591.89326 C 901.1339 593.04116 900.5633 593.6151 899.333 593.6151 C 898.2744 593.6151 897.7005 593.04116 897.6112 591.89326 C 897.4393 589.21254 896.6935 587.3326 895.3738 586.25344 C 894.054 585.1743 891.8304 584.6347 888.7029 584.6347 L 880.7226 584.6347 C 878.1725 584.6347 876.1585 584.9646 874.6807 585.6245 C 873.2097 586.2844 872.1443 587.3532 871.4844 588.83106 C 870.8246 590.302 870.4946 592.3366 870.4946 594.93484 L 870.4946 609.9778 C 870.4946 612.5692 870.8246 614.6038 871.4844 616.0816 C 872.1443 617.55256 873.2097 618.618 874.6807 619.27784 C 876.1585 619.9377 878.1932 620.26764 880.7845 620.26764 L 888.7029 620.26764 C 890.9918 620.26764 892.7859 619.9927 894.085 619.4428 C 895.3841 618.8929 896.3086 617.9684 896.8585 616.6693 C 897.4083 615.37705 897.6833 613.5865 897.6833 611.29754 L 897.6833 607.1424 L 890.4248 607.07026 C 889.2769 607.07026 888.7029 606.49975 888.7029 605.3587 C 888.7029 604.2108 889.2769 603.6369 890.4248 603.6369 L 899.3949 603.70905 C 900.5427 603.70905 901.1167 604.2796 901.1167 605.4206 L 901.1167 611.29754 C 901.1167 615.64856 900.1372 618.80356 898.1782 620.76255 C 896.2192 622.7215 893.0608 623.701 888.7029 623.701 Z M 938.3272 620.26764 C 939.475 620.26764 940.049 620.8416 940.049 621.9895 C 940.049 623.1305 939.475 623.701 938.3272 623.701 L 913.5821 623.701 C 912.441 623.701 911.8705 623.1305 911.8705 621.9895 L 911.8705 582.92316 C 911.8705 581.77526 912.441 581.2013 913.5821 581.2013 L 938.3272 581.2013 C 939.475 581.2013 940.049 581.77526 940.049 582.92316 C 940.049 584.0642 939.475 584.6347 938.3272 584.6347 L 915.3039 584.6347 L 915.3039 600.47156 L 930.5428 600.47156 C 931.6838 600.47156 932.2543 601.0455 932.2543 602.1934 C 932.2543 603.3344 931.6838 603.90494 930.5428 603.90494 L 915.3039 603.90494 L 915.3039 620.26764 Z" stroke="#01508f" stroke-linecap="round" stroke-linejoin="round" stroke-width="1"/>
      </g>
    </g>
  </g>
</svg>
