<?xml version="1.0" encoding="UTF-8" standalone="no"?>
<!DOCTYPE svg PUBLIC "-//W3C//DTD SVG 1.1//EN" "http://www.w3.org/Graphics/SVG/1.1/DTD/svg11.dtd">
<svg xmlns:dc="http://purl.org/dc/elements/1.1/" xmlns:xl="http://www.w3.org/1999/xlink" xmlns="http://www.w3.org/2000/svg" version="1.1" viewBox="436.15205 323.009 196.91089 121.60301" width="196.91089" height="121.60301">
  <defs/>
  <metadata> Produced by OmniGraffle 7.12.1 
    <dc:date>2019-11-08 11:23:04 +0000</dc:date>
  </metadata>
  <g id="Canevas_5" fill-opacity="1" fill="none" stroke="none" stroke-opacity="1" stroke-dasharray="none">
    <title>Canevas 5</title>
    <g id="Canevas_5: Calque 1">
      <title>Calque 1</title>
      <g id="Graphic_3">
        <path d="M 439.0309 444.612 C 432.3094 412.925 439.0309 397.7536 442.2956 394.4889 C 447.2887 389.4957 464.1885 374.3244 479.1679 367.6029 C 490.8825 362.6097 539.4693 359.153 551.1839 362.6097 C 562.8985 365.8745 568.0837 386.039 574.8052 389.4957 C 581.3347 391.0321 586.3278 387.7674 593.2413 387.7674 C 608.2207 387.7674 614.9422 411.1966 628.1931 411.1966 C 631.6499 414.4613 628.3852 422.9112 628.3852 422.9112 C 624.9284 424.6396 611.4854 431.3611 611.4854 444.612 L 439.0309 444.612 Z" fill="#00508f"/>
      </g>
      <g id="Graphic_4">
        <path d="M 590.3607 397.7536 C 586.9039 399.482 580.5665 397.3695 578.454 394.4889 C 566.7394 377.5891 605.34 344.1736 603.6116 324.0091 C 608.7968 347.4384 575.1893 384.3106 588.6323 391.0321 C 591.897 392.7605 591.897 396.2172 590.3607 397.7536 Z" fill="#adc5e7"/>
      </g>
      <g id="Graphic_5">
        <path d="M 590.36045 397.7534 C 586.9037 399.4818 580.56626 397.36934 578.4538 394.4887 C 566.7392 377.58893 605.3398 344.1735 603.6114 324.009 C 608.79655 347.4382 575.18906 384.31043 588.63206 391.0319 C 591.8968 392.7603 591.8968 396.2171 590.36045 397.7534 Z" stroke="black" stroke-linecap="butt" stroke-linejoin="round" stroke-width="2"/>
      </g>
      <g id="Graphic_6">
        <path d="M 494.7233 350.8951 C 514.8878 349.1667 531.5956 345.902 545.0386 360.8814 C 548.4953 364.3381 533.3239 404.4751 524.8741 407.7398 C 523.3377 409.4682 498.1801 411.1966 483.0087 407.9319 C 479.744 406.2035 476.2872 404.4751 474.7509 401.2104 C 473.0225 396.2172 478.0156 360.8814 494.7233 350.8951 Z" fill="#adc5e7"/>
      </g>
      <g id="Graphic_7">
        <path d="M 494.72313 350.89498 C 514.8876 349.1666 531.59535 345.90187 545.03834 360.8812 C 548.4951 364.33797 533.32373 404.4749 524.87385 407.73965 C 523.3375 409.46803 498.1799 411.1964 483.0085 407.9317 C 479.7438 406.2033 476.287 404.4749 474.7507 401.2102 C 473.0223 396.2171 478.0154 360.8812 494.72313 350.89498 Z" stroke="black" stroke-linecap="butt" stroke-linejoin="round" stroke-width="2"/>
      </g>
      <g id="Graphic_8">
        <path d="M 533.3239 352.4315 C 553.2964 340.9089 568.4678 362.6097 570.1962 365.8745 C 571.7325 369.3312 571.7325 381.0459 568.4678 381.0459 C 558.2895 364.1461 555.0248 362.6097 545.0386 360.8814 C 541.1977 358.0007 537.1648 355.3121 533.3239 352.4315 Z" fill="#adc5e7"/>
      </g>
      <g id="Graphic_9">
        <path d="M 533.32373 352.4313 C 553.2962 340.90875 568.4676 362.6096 570.19595 365.8743 C 571.7323 369.3311 571.7323 381.0457 568.4676 381.0457 C 558.2893 364.14593 555.0246 362.6096 545.03834 360.8812 C 541.1975 358.00056 537.1646 355.31196 533.32373 352.4313 Z" stroke="black" stroke-linecap="butt" stroke-linejoin="round" stroke-width="2"/>
      </g>
      <g id="Graphic_10">
        <path d="M 599.7708 388.9196 C 621.6637 373.9403 605.5321 357.6166 623.9682 325.7375 C 610.3331 357.6166 627.2329 381.0459 607.0684 394.4889 C 603.8037 391.0321 602.6514 391.2241 599.7708 388.9196 Z" fill="#adc5e7"/>
      </g>
      <g id="Graphic_11">
        <path d="M 599.77054 388.91945 C 621.6634 373.9401 605.5318 357.61648 623.9679 325.73737 C 610.3329 357.61648 627.2327 381.0457 607.0682 394.4887 C 603.80344 391.0319 602.6512 391.22397 599.77054 388.91945 Z" stroke="black" stroke-linecap="butt" stroke-linejoin="round" stroke-width="2"/>
      </g>
      <g id="Graphic_12">
        <path d="M 597.4663 402.1706 C 599.1946 402.7467 599.7708 405.6273 598.6185 408.8921 C 597.6583 411.9648 595.5458 414.0772 593.8174 413.5011 C 591.897 412.925 591.5129 410.0443 592.4731 406.7796 C 593.4334 403.7069 595.5458 401.5944 597.4663 402.1706 Z M 594.2015 401.2104 L 594.2015 401.2104 Z M 596.8901 414.6534 L 596.8901 414.6534 Z" fill="white"/>
      </g>
      <g id="Graphic_13">
        <path d="M 597.466 402.1704 C 599.1944 402.74653 599.77054 405.6272 598.6183 408.8919 C 597.6581 411.9646 595.5456 414.07706 593.8172 413.50093 C 591.8968 412.9248 591.5127 410.04416 592.4729 406.77943 C 593.4331 403.70675 595.5456 401.5943 597.466 402.1704 Z" stroke="black" stroke-linecap="butt" stroke-linejoin="round" stroke-width="2"/>
      </g>
      <g id="Graphic_14">
        <path d="M 597.0822 403.5149 C 598.0424 403.899 598.2344 405.2433 597.8503 406.7796 C 597.2742 408.3159 596.314 409.2762 595.5458 409.0841 C 594.7777 408.7 594.3936 407.3557 594.7777 405.8194 C 595.3538 404.283 596.314 403.3228 597.0822 403.5149 Z M 595.5458 403.1308 L 595.5458 403.1308 Z M 597.0822 409.6602 L 597.0822 409.6602 Z" fill="black"/>
      </g>
      <g id="Graphic_15">
        <path d="M 597.08194 403.5147 C 598.04216 403.8988 598.2342 405.2431 597.8501 406.77943 C 597.274 408.31578 596.3138 409.276 595.5456 409.08395 C 594.7774 408.69986 594.39334 407.35556 594.7774 405.8192 C 595.35356 404.2829 596.3138 403.32266 597.08194 403.5147 Z" stroke="black" stroke-linecap="butt" stroke-linejoin="round" stroke-width="1"/>
      </g>
      <g id="Graphic_16">
        <path d="M 475.519 401.2104 C 475.519 396.2172 509.7027 396.0252 516.4242 392.7605 C 523.1457 387.7674 528.1388 352.4315 533.3239 353.5837 C 538.3171 355.8882 541.1977 359.153 545.0386 362.6097 C 541.5818 377.5891 531.5956 407.7398 521.6093 407.7398 C 508.1663 409.4682 496.4517 409.4682 483.2008 406.9716 C 479.744 405.2433 478.0156 404.4751 475.519 401.2104 Z" fill="#7da7d8"/>
      </g>
      <g id="Graphic_17">
        <path d="M 556.7532 354.1599 C 560.2099 362.6097 551.7601 360.8814 551.7601 360.8814 C 560.2099 364.3381 565.2031 372.596 568.4678 379.3175 C 575.1893 369.3312 561.7463 355.8882 556.7532 354.1599 Z" fill="#7da7d8"/>
      </g>
      <g id="Graphic_18">
        <path d="M 489.7302 409.4682 C 488.0018 431.3611 523.1457 426.368 536.5887 411.1966 C 545.0386 401.2104 555.0248 369.3312 546.3829 364.7222 C 541.5818 387.7674 529.8672 404.4751 526.6024 407.7398 C 521.6093 411.1966 501.4448 411.1966 489.7302 409.4682 Z" fill="#003d73"/>
      </g>
      <g id="Graphic_19">
        <path d="M 623.7761 411.1966 C 595.3538 409.4682 605.34 396.0252 590.3607 388.5355 C 608.6047 387.7674 612.0615 407.9319 623.7761 411.1966 Z" fill="#003d73"/>
      </g>
      <g id="Graphic_20">
        <path d="M 625.5045 411.1966 C 622.6239 411.7727 621.6637 412.7329 622.0477 414.4613 C 622.2398 415.4215 621.6637 415.8056 622.8159 416.1897 C 620.7034 415.8056 619.1671 414.8454 618.783 413.3091 C 618.3989 411.0045 620.8955 408.508 624.5443 407.9319 C 628.3852 407.1637 631.6499 408.3159 632.034 410.8125 C 632.226 412.1568 631.4578 413.5011 630.1135 414.4613 C 630.6897 413.8852 631.0738 413.117 630.8817 412.3488 C 630.4976 410.6205 628.1931 410.6205 625.5045 411.1966 Z" fill="#adc6e8"/>
      </g>
      <g id="Graphic_21">
        <path d="M 625.5043 411.1964 C 622.6236 411.77255 621.6634 412.73276 622.0475 414.46114 C 622.23955 415.42136 621.6634 415.80544 622.8157 416.18953 C 620.7032 415.80544 619.1669 414.84523 618.7828 413.3089 C 618.3987 411.00437 620.89525 408.5078 624.5441 407.9317 C 628.3849 407.1635 631.64965 408.31578 632.0337 410.81233 C 632.2258 412.15663 631.4576 413.50093 630.1133 414.46114 C 630.6894 413.885 631.0735 413.11685 630.8815 412.34867 C 630.4974 410.6203 628.1929 410.6203 625.5043 411.1964 Z" stroke="black" stroke-linecap="butt" stroke-linejoin="round" stroke-width="2"/>
      </g>
      <g id="Graphic_22">
        <path d="M 560.2099 371.0596 C 565.2031 391.0321 568.4678 429.6327 566.7394 441.3473 C 591.897 414.4613 576.9177 397.7536 573.4609 389.3037 C 566.7394 384.3106 565.2031 376.0527 560.2099 371.0596 Z" fill="#003d73"/>
      </g>
      <g id="Graphic_23">
        <path d="M 578.454 397.7536 C 568.4678 396.2172 560.2099 407.7398 556.7532 414.4613 C 568.4678 407.7398 568.4678 411.1966 578.454 407.7398 L 578.454 397.7536 Z" fill="#00599d"/>
      </g>
      <g id="Line_24">
        <path d="M 578.4538 397.7534 C 564.15094 400.31447 563.9866 408.8919 556.75296 414.46114 C 564.0506 412.22065 571.3482 409.98015 578.64583 407.73965" stroke="black" stroke-linecap="butt" stroke-linejoin="round" stroke-width="2"/>
      </g>
      <g id="Graphic_25">
        <path d="M 578.454 401.0183 C 568.4678 402.7467 565.2031 409.4682 565.2031 409.4682 C 575.1893 407.7398 570.1962 409.6602 578.454 406.9716 L 578.454 401.0183 Z" fill="#003d73"/>
      </g>
    </g>
  </g>
</svg>
