<?xml version="1.0" encoding="UTF-8"?>
<svg width="502px" height="186px" viewBox="0 0 502 186" version="1.1" xmlns="http://www.w3.org/2000/svg" xmlns:xlink="http://www.w3.org/1999/xlink">
    <title>zettascale - dark</title>
    <defs>
        <linearGradient x1="0%" y1="0%" x2="100%" y2="100%" id="linearGradient-1">
            <stop stop-color="#1450FF" offset="0%"></stop>
            <stop stop-color="#14B4FF" offset="100%"></stop>
        </linearGradient>
    </defs>
    <g id="DEF" stroke="none" stroke-width="1" fill="none" fill-rule="evenodd">
        <g id="Logo" transform="translate(-549.000000, -197.000000)" fill-rule="nonzero">
            <g id="zettascale---dark" transform="translate(549.000000, 197.000000)">
                <path d="M257.74,84.72 L257.74,71.88 L222.713,71.88 L257.08,33.18 L257.08,21 L206.32,21 L206.32,33.84 L239.499,33.84 L205,72.54 L205,84.72 L257.74,84.72 Z M295.52,86.1 C300.56,86.1 305.05,85.49 308.99,84.27 C312.93,83.05 316.28,81.41 319.04,79.35 C321.8,77.29 323.95,74.99 325.49,72.45 C327.03,69.91 327.92,67.3 328.16,64.62 L328.16,64.62 L312.44,64.62 C312.32,65.66 311.93,66.7 311.27,67.74 C310.61,68.78 309.63,69.75 308.33,70.65 C307.03,71.55 305.36,72.26 303.32,72.78 C301.28,73.3 298.86,73.56 296.06,73.56 C291.94,73.56 288.45,72.73 285.59,71.07 C282.73,69.41 280.56,67.01 279.08,63.87 C278.272727,62.1572727 277.68562,60.2630579 277.318678,58.1873554 L277.28,57.96 L328.82,57.96 C328.892,57.564 328.9478,56.9574 328.9874,56.1402 L329,55.86 C329.04,54.9 329.06,54 329.06,53.16 C329.06,46.56 327.7,40.77 324.98,35.79 C322.26,30.81 318.39,26.92 313.37,24.12 C308.35,21.32 302.4,19.92 295.52,19.92 C288.84,19.92 282.92,21.31 277.76,24.09 C272.6,26.87 268.57,30.74 265.67,35.7 C262.77,40.66 261.32,46.44 261.32,53.04 C261.32,59.48 262.75,65.2 265.61,70.2 C268.47,75.2 272.46,79.1 277.58,81.9 C282.7,84.7 288.68,86.1 295.52,86.1 Z M312.742076,46.741 L277.432,46.741 L277.488809,46.4734594 C277.838147,44.9021928 278.333043,43.4443478 278.973497,42.0999244 L279.17,41.7 C280.71,38.66 282.89,36.33 285.71,34.71 C288.53,33.09 291.86,32.28 295.7,32.28 C299.58,32.28 302.78,33.03 305.3,34.53 C307.82,36.03 309.7,37.99 310.94,40.41 C311.961176,42.4029412 312.561869,44.5111765 312.742076,46.7347059 L312.742076,46.741 Z M367.08,85.92 C368.92,85.92 370.56,85.78 372,85.5 C373.44,85.22 374.54,84.94 375.3,84.66 L375.3,84.66 L375.3,72.3 C374.74,72.54 373.89,72.78 372.75,73.02 C371.61,73.26 370.4,73.38 369.12,73.38 C366.44,73.38 364.74,72.48 364.02,70.68 C363.3,68.88 362.94,66.5 362.94,63.54 L362.94,63.54 L362.94,33.6 L381.9,33.6 L381.9,21 L362.94,21 L362.94,0 L347.1,0 L347.1,10.14 C347.1,12.74 347.01,14.77 346.83,16.23 C346.65,17.69 346.28,18.76 345.72,19.44 C345.16,20.12 344.28,20.55 343.08,20.73 C341.88,20.91 340.24,21 338.16,21 L338.16,21 L332.04,21 L332.04,33.6 L347.1,33.6 L347.1,68.34 C347.1,72.14 347.7,75.2 348.9,77.52 C350.1,79.84 351.68,81.6 353.64,82.8 C355.6,84 357.76,84.82 360.12,85.26 C362.48,85.7 364.8,85.92 367.08,85.92 Z M414.46,85.92 C416.3,85.92 417.94,85.78 419.38,85.5 C420.82,85.22 421.92,84.94 422.68,84.66 L422.68,84.66 L422.68,72.3 C422.12,72.54 421.27,72.78 420.13,73.02 C418.99,73.26 417.78,73.38 416.5,73.38 C413.82,73.38 412.12,72.48 411.4,70.68 C410.68,68.88 410.32,66.5 410.32,63.54 L410.32,63.54 L410.32,33.6 L429.28,33.6 L429.28,21 L410.32,21 L410.32,0 L394.48,0 L394.48,10.14 C394.48,12.74 394.39,14.77 394.21,16.23 C394.03,17.69 393.66,18.76 393.1,19.44 C392.54,20.12 391.66,20.55 390.46,20.73 C389.26,20.91 387.62,21 385.54,21 L385.54,21 L379.42,21 L379.42,33.6 L394.48,33.6 L394.48,68.34 C394.48,72.14 395.08,75.2 396.28,77.52 C397.48,79.84 399.06,81.6 401.02,82.8 C402.98,84 405.14,84.82 407.5,85.26 C409.86,85.7 412.18,85.92 414.46,85.92 Z M463.94,86.04 C468.9,86.04 473.46,84.93 477.62,82.71 C479.997143,81.4414286 482.109796,79.8202041 483.957959,77.8463265 L484.1,77.692 L484.1,84.72 L499.94,84.72 L499.94,21 L484.1,21 L484.1,28.488 L483.803333,28.1662963 C482.112963,26.3745267 480.204815,24.8623731 478.078889,23.6298354 L477.62,23.37 C473.46,21.07 468.9,19.92 463.94,19.92 C460.06,19.92 456.28,20.6 452.6,21.96 C448.92,23.32 445.62,25.36 442.7,28.08 C439.78,30.8 437.45,34.19 435.71,38.25 C433.97,42.31 433.1,47.06 433.1,52.5 C433.1,58.18 433.95,63.12 435.65,67.32 C437.35,71.52 439.66,75.01 442.58,77.79 C445.5,80.57 448.8,82.64 452.48,84 C456.16,85.36 459.98,86.04 463.94,86.04 Z M467.72,72.48 C464.64,72.48 461.73,71.8 458.99,70.44 C456.25,69.08 454.03,66.93 452.33,63.99 C450.63,61.05 449.78,57.26 449.78,52.62 C449.78,47.94 450.63,44.2 452.33,41.4 C454.03,38.6 456.25,36.57 458.99,35.31 C461.73,34.05 464.64,33.42 467.72,33.42 C470.52,33.42 473.17,34.02 475.67,35.22 C478.17,36.42 480.2,38.22 481.76,40.62 C483.32,43.02 484.1,46.04 484.1,49.68 L484.1,49.68 L484.1,50.34 L484.1,55.92 C484.1,59.52 483.33,62.56 481.79,65.04 C480.25,67.52 478.23,69.38 475.73,70.62 C473.23,71.86 470.56,72.48 467.72,72.48 Z" id="zetta" fill="#0A143C"></path>
                <path d="M164,21 L164,31 C164,57.127317 151.780553,80.4006292 132.744798,95.4167967 C150.917501,101.559185 164,118.751802 164,139 C164,164.151048 143.814937,184.587621 118.760694,184.993837 L118,185 L0,185 L0,175 C0,148.872683 12.2194473,125.599371 31.255202,110.583203 C13.0824994,104.440815 0,87.2481983 0,67 C0,41.8489525 20.185063,21.412379 45.2393059,21.0061627 L46,21 L164,21 Z M118,113 L82,113 C51.4906858,113 26.1283475,135.036823 20.9618389,164.061615 L20.802,165 L118,165 C132.073651,165 143.535628,153.818089 143.986241,139.853956 L143.996517,139.429958 L144,139 C144,124.784191 132.591051,113.233084 118.429958,113.003483 L118,113 Z M143.197,41 L46,41 C31.6405965,41 20,52.6405965 20,67 C20,81.2158095 31.4089486,92.7669162 45.5700425,92.9965167 L46,93 L82,93 C112.509314,93 137.871652,70.9631769 143.038161,41.9383846 L143.197,41 Z" id="Combined-Shape" fill="url(#linearGradient-1)"></path>
                <path d="M469.72,119.32 C476.16,119.32 481.74,120.72 486.46,123.52 C491.18,126.32 494.82,130.15 497.38,135.01 C499.94,139.87 501.22,145.4 501.22,151.6 C501.22,152.24 501.2,153.08 501.16,154.12 L501.16,154.12 L501.149583,154.372917 C501.109861,155.274306 501.053333,155.89 500.98,156.22 L500.98,156.22 L447.219,156.22 L447.265696,156.594304 C447.670432,159.643968 448.5052,162.3792 449.77,164.8 C451.63,168.36 454.28,171.1 457.72,173.02 C461.16,174.94 465.24,175.9 469.96,175.9 C473.32,175.9 476.24,175.55 478.72,174.85 C481.2,174.15 483.25,173.21 484.87,172.03 C486.49,170.85 487.72,169.56 488.56,168.16 C489.4,166.76 489.9,165.36 490.06,163.96 L490.06,163.96 L500.26,163.96 L500.215469,164.439766 C499.957656,166.837422 499.1725,169.2175 497.86,171.58 C496.46,174.1 494.48,176.39 491.92,178.45 C489.36,180.51 486.22,182.16 482.5,183.4 C478.78,184.64 474.5,185.26 469.66,185.26 C463.26,185.26 457.62,183.86 452.74,181.06 C447.86,178.26 444.03,174.38 441.25,169.42 C438.47,164.46 437.08,158.76 437.08,152.32 C437.08,145.8 438.48,140.07 441.28,135.13 C444.08,130.19 447.94,126.32 452.86,123.52 C457.78,120.72 463.4,119.32 469.72,119.32 Z M231.82,119.32 C236.46,119.32 240.74,120.06 244.66,121.54 C248.58,123.02 251.73,125.17 254.11,127.99 C256.49,130.81 257.68,134.28 257.68,138.4 L257.68,138.4 L257.68,139.6 L247.48,139.6 L247.48,138.7 L247.47445,138.355075 C247.40415,136.190025 246.666,134.395 245.26,132.97 C243.78,131.47 241.86,130.35 239.5,129.61 C237.14,128.87 234.62,128.5 231.94,128.5 C229.42,128.5 226.94,128.77 224.5,129.31 C222.06,129.85 220.04,130.74 218.44,131.98 C216.84,133.22 216.04,134.92 216.04,137.08 C216.04,139.24 216.79,140.97 218.29,142.27 C219.79,143.57 221.91,144.63 224.65,145.45 C227.39,146.27 230.62,147.02 234.34,147.7 C237.66,148.3 240.8,149.05 243.76,149.95 C246.72,150.85 249.33,152 251.59,153.4 C253.85,154.8 255.63,156.57 256.93,158.71 C258.23,160.85 258.88,163.46 258.88,166.54 C258.88,169.66 258.17,172.38 256.75,174.7 C255.33,177.02 253.37,178.96 250.87,180.52 C248.37,182.08 245.49,183.25 242.23,184.03 C238.97,184.81 235.5,185.2 231.82,185.2 C227.98,185.2 224.43,184.79 221.17,183.97 C217.91,183.15 215.07,181.95 212.65,180.37 C210.23,178.79 208.35,176.84 207.01,174.52 C205.67,172.2 205,169.54 205,166.54 L205,166.54 L205,164.68 L215.26,164.68 L215.26,166 L215.264683,166.311145 C215.358335,169.398554 216.856774,171.764839 219.76,173.41 C222.76,175.11 226.86,175.96 232.06,175.96 C235.26,175.96 238.12,175.64 240.64,175 C243.16,174.36 245.15,173.38 246.61,172.06 C248.07,170.74 248.8,169.08 248.8,167.08 C248.8,163.76 247.25,161.39 244.15,159.97 C241.05,158.55 236.42,157.32 230.26,156.28 C227.02,155.72 223.94,154.99 221.02,154.09 C218.1,153.19 215.51,152.02 213.25,150.58 C210.99,149.14 209.21,147.35 207.91,145.21 C206.61,143.07 205.96,140.5 205.96,137.5 C205.96,133.62 207.11,130.33 209.41,127.63 C211.71,124.93 214.82,122.87 218.74,121.45 C222.66,120.03 227.02,119.32 231.82,119.32 Z M300.52,119.32 C305.16,119.32 309.3,120.03 312.94,121.45 C316.58,122.87 319.66,124.76 322.18,127.12 C324.7,129.48 326.63,132.07 327.97,134.89 C329.31,137.71 329.98,140.52 329.98,143.32 L329.98,143.32 L329.98,143.74 L319.84,143.74 L319.83625,143.584375 C319.82875,143.423125 319.81,143.245 319.78,143.05 C319.74,142.79 319.7,142.52 319.66,142.24 C319.34,139.56 318.32,137.21 316.6,135.19 C314.88,133.17 312.64,131.58 309.88,130.42 C307.12,129.26 303.98,128.68 300.46,128.68 C296.5,128.68 292.83,129.53 289.45,131.23 C286.07,132.93 283.35,135.51 281.29,138.97 C279.23,142.43 278.2,146.8 278.2,152.08 C278.2,157.32 279.22,161.7 281.26,165.22 C283.3,168.74 286.01,171.39 289.39,173.17 C292.77,174.95 296.46,175.84 300.46,175.84 C304.78,175.84 308.34,175.16 311.14,173.8 C313.94,172.44 316.05,170.63 317.47,168.37 C318.89,166.11 319.68,163.68 319.84,161.08 L319.84,161.08 L329.98,161.08 L329.973356,161.588131 C329.902491,164.297612 329.264706,166.998235 328.06,169.69 C326.78,172.55 324.9,175.15 322.42,177.49 C319.94,179.83 316.87,181.7 313.21,183.1 C309.55,184.5 305.32,185.2 300.52,185.2 C294.44,185.2 288.92,183.87 283.96,181.21 C279,178.55 275.07,174.74 272.17,169.78 C269.27,164.82 267.82,158.92 267.82,152.08 C267.82,145.24 269.27,139.37 272.17,134.47 C275.07,129.57 279,125.82 283.96,123.22 C288.92,120.62 294.44,119.32 300.52,119.32 Z M370.18,119.32 C375.18,119.32 379.74,120.39 383.86,122.53 L383.86,122.53 L384.314403,122.772099 C386.71989,124.086337 388.837421,125.7693 390.666996,127.820988 L390.666996,127.820988 L390.88,128.066 L390.88,120.28 L401.14,120.28 L401.14,184 L390.88,184 L390.88,176.543 L390.789082,176.648622 C388.818265,178.899541 386.508571,180.7 383.86,182.05 C379.74,184.15 375.18,185.2 370.18,185.2 C366.26,185.2 362.44,184.54 358.72,183.22 C355,181.9 351.65,179.87 348.67,177.13 C345.69,174.39 343.32,170.93 341.56,166.75 C339.8,162.57 338.92,157.6 338.92,151.84 C338.92,146.32 339.81,141.52 341.59,137.44 C343.37,133.36 345.75,129.98 348.73,127.3 C351.71,124.62 355.06,122.62 358.78,121.3 C362.5,119.98 366.3,119.32 370.18,119.32 Z M425.38,100 L425.38,184 L415.3,184 L415.299,100 L425.38,100 Z M371.32,128.56 C367.56,128.56 364.03,129.32 360.73,130.84 C357.43,132.36 354.76,134.82 352.72,138.22 C350.68,141.62 349.66,146.16 349.66,151.84 C349.66,157.52 350.68,162.14 352.72,165.7 C354.76,169.26 357.43,171.86 360.73,173.5 C364.03,175.14 367.56,175.96 371.32,175.96 C374.8,175.96 378.02,175.18 380.98,173.62 C383.94,172.06 386.33,169.78 388.15,166.78 C389.97,163.78 390.88,160.16 390.88,155.92 L390.88,155.92 L390.88,148.24 L390.875632,147.729664 C390.805744,143.673088 389.8972,140.2432 388.15,137.44 C386.33,134.52 383.93,132.31 380.95,130.81 C377.97,129.31 374.76,128.56 371.32,128.56 Z M469.84,128.56 C465.32,128.56 461.34,129.52 457.9,131.44 C454.46,133.36 451.78,136.07 449.86,139.57 L449.86,139.57 L449.634208,139.993216 C448.602016,141.983232 447.87088,144.18336 447.4408,146.5936 L447.4408,146.5936 L447.355,147.1 L490.245,147.1 L490.2076,146.6092 C489.9612,143.7644 489.222,141.118 487.99,138.67 C486.45,135.61 484.16,133.16 481.12,131.32 C478.08,129.48 474.32,128.56 469.84,128.56 Z" id="scale" fill="#0A143C"></path>
            </g>
        </g>
    </g>
</svg>