<?xml version="1.0" encoding="utf-8"?>
<!-- Generator: Adobe Illustrator 26.0.1, SVG Export Plug-In . SVG Version: 6.00 Build 0)  -->
<svg version="1.1" id="Ebene_1" xmlns="http://www.w3.org/2000/svg" xmlns:xlink="http://www.w3.org/1999/xlink" x="0px" y="0px"
	 viewBox="0 0 1000 357" style="enable-background:new 0 0 1000 357;" xml:space="preserve">
<style type="text/css">
	.st0{fill:#FF2E63;}
	.st1{fill:#08D9D6;}
</style>
<g>
	<path class="st0" d="M511.58,104.6c1.19,1.25,1.79,2.82,1.79,4.72c0,1.76-0.6,3.26-1.79,4.5c-1.19,1.25-2.7,1.87-4.52,1.87h-70
		v55.13h60.54c1.82,0,3.33,0.59,4.52,1.76s1.79,2.71,1.79,4.61s-0.6,3.44-1.79,4.61s-2.7,1.76-4.52,1.76h-60.54v66.33
		c0,1.9-0.6,3.48-1.79,4.72c-1.19,1.25-2.7,1.87-4.52,1.87c-1.96,0-3.54-0.62-4.73-1.87c-1.19-1.24-1.79-2.82-1.79-4.72V109.32
		c0-1.9,0.6-3.48,1.79-4.72s2.7-1.87,4.52-1.87h76.52C508.88,102.73,510.38,103.36,511.58,104.6z"/>
	<path class="st0" d="M629.08,245.27c1.19,1.17,1.79,2.71,1.79,4.61s-0.6,3.48-1.79,4.72c-1.19,1.25-2.7,1.87-4.52,1.87h-75.05
		c-1.82,0-3.33-0.62-4.52-1.87c-1.19-1.24-1.79-2.82-1.79-4.72V109.32c0-1.9,0.63-3.48,1.89-4.72s2.87-1.87,4.83-1.87
		c1.82,0,3.36,0.62,4.62,1.87s1.89,2.82,1.89,4.72v134.19h68.11C626.38,243.52,627.89,244.1,629.08,245.27z"/>
	<path class="st0" d="M743.02,245.49c1.19,1.32,1.79,2.86,1.79,4.61c0,1.9-0.6,3.44-1.79,4.61s-2.7,1.76-4.52,1.76h-77.15
		c-1.82,0-3.33-0.62-4.52-1.87c-1.19-1.24-1.79-2.82-1.79-4.72V109.32c0-1.9,0.59-3.48,1.79-4.72c1.19-1.24,2.7-1.87,4.52-1.87
		h77.15c1.82,0,3.33,0.62,4.52,1.87s1.79,2.82,1.79,4.72s-0.6,3.44-1.79,4.61s-2.7,1.76-4.52,1.76h-70.21v55.13h60.75
		c1.82,0,3.33,0.62,4.52,1.87s1.79,2.82,1.79,4.72s-0.6,3.44-1.79,4.61s-2.7,1.76-4.52,1.76h-60.75v59.74h70.21
		C740.32,243.52,741.83,244.18,743.02,245.49z"/>
	<path class="st0" d="M885.01,119.65c0,1.32-0.49,2.78-1.47,4.39c-1.26,1.61-2.87,2.42-4.83,2.42c-1.12,0-2.24-0.36-3.36-1.1
		c-11.21-7.76-23.47-11.64-36.79-11.64c-11.35,0-21.62,2.78-30.8,8.35s-16.4,13.36-21.65,23.39c-5.26,10.03-7.88,21.41-7.88,34.15
		c0,13.03,2.66,24.56,7.99,34.59c5.32,10.03,12.58,17.79,21.76,23.28c9.18,5.49,19.37,8.24,30.59,8.24
		c13.31,0,25.5-3.81,36.58-11.42c1.12-0.73,2.31-1.1,3.57-1.1c1.96,0,3.57,0.88,4.83,2.64c0.98,1.17,1.47,2.56,1.47,4.17
		c0,2.34-0.98,4.1-2.94,5.27c-5.47,3.81-12.19,6.99-20.18,9.55s-15.77,3.84-23.33,3.84c-13.32,0-25.61-3.33-36.89-9.99
		s-20.25-16-26.91-28s-9.98-25.7-9.98-41.07c0-14.79,3.29-28.22,9.88-40.3s15.48-21.52,26.7-28.33
		c11.21-6.81,23.61-10.21,37.21-10.21c7.85,0,15.52,1.17,23.02,3.51c7.5,2.34,14.26,5.64,20.29,9.88
		C883.96,115.47,885.01,117.3,885.01,119.65z"/>
	<path class="st0" d="M924.64,253.4c-7.78-3.51-15.31-9-22.6-16.47c-1.68-1.46-2.52-3.22-2.52-5.27c0-1.76,0.66-3.37,2-4.83
		c1.33-1.46,2.84-2.2,4.52-2.2s3.22,0.73,4.62,2.2c10.93,12.59,24.6,18.89,40.99,18.89c10.09,0,18.46-2.49,25.12-7.47
		c6.65-4.98,9.99-11.49,9.99-19.55c0-6.29-1.65-11.53-4.94-15.7s-7.6-7.58-12.93-10.21c-5.33-2.64-12.12-5.34-20.39-8.13
		c-8.97-2.78-16.5-5.85-22.6-9.22s-11.04-7.87-14.82-13.51c-3.78-5.63-5.68-12.77-5.68-21.41c0-7.76,2-14.64,5.99-20.65
		c3.99-6,9.6-10.72,16.82-14.17c7.22-3.44,15.52-5.16,24.91-5.16c8.55,0,16.57,1.5,24.07,4.5s13.49,7.29,17.97,12.85
		c2.1,2.49,3.15,4.61,3.15,6.37c0,1.61-0.7,3.11-2.1,4.5c-1.4,1.39-2.94,2.09-4.62,2.09c-1.4,0-2.59-0.51-3.57-1.54
		c-3.78-4.68-8.83-8.49-15.13-11.42c-6.31-2.93-12.9-4.39-19.76-4.39c-10.23,0-18.57,2.38-25.02,7.14s-9.67,11.24-9.67,19.44
		c0,8.49,3.08,15.01,9.25,19.55c6.17,4.54,14.99,8.71,26.49,12.52c9.95,3.07,18.08,6.23,24.38,9.44c6.31,3.22,11.46,7.8,15.45,13.73
		s5.99,13.73,5.99,23.39c0,7.47-2.07,14.24-6.2,20.32c-4.14,6.08-9.88,10.87-17.24,14.39c-7.36,3.51-15.73,5.27-25.12,5.27
		C941.35,258.67,932.42,256.91,924.64,253.4z"/>
</g>
<g>
	<path class="st1" d="M199.79,90.7c-11.73-11.73-30.82-11.73-42.55,0L90.7,157.23c-5.68,5.68-8.81,13.23-8.81,21.27
		c0,8.03,3.13,15.59,8.81,21.27l66.54,66.53c5.87,5.87,13.57,8.8,21.28,8.8c7.71,0,15.41-2.93,21.28-8.8l66.53-66.53
		c5.68-5.68,8.81-13.23,8.81-21.27c0-8.03-3.13-15.59-8.81-21.27L199.79,90.7z M256.3,189.73l-66.54,66.53
		c-6.2,6.19-16.28,6.19-22.47,0l-66.54-66.53c-3-3-4.65-6.99-4.65-11.23s1.65-8.23,4.65-11.23l66.54-66.53
		c6.2-6.19,16.28-6.19,22.47,0l66.54,66.53c3,3,4.65,6.99,4.65,11.23S259.3,186.73,256.3,189.73z"/>
	<path class="st1" d="M75.22,148.4l-1.12-1.12c-2.48-2.49-6.51-2.49-9,0l-29.85,29.85c-0.87,0.87-0.87,2.28,0,3.15l29.85,29.85
		c2.49,2.49,6.52,2.49,9,0.01l1.12-1.12c2.49-2.48,2.49-6.51,0-9l-21.31-21.31l21.31-21.31C77.71,154.92,77.71,150.89,75.22,148.4z"
		/>
	<path class="st1" d="M19.31,178.71l21.31-21.31c2.49-2.48,2.49-6.51,0-9l-1.12-1.12c-2.48-2.49-6.51-2.49-9,0L0.65,177.13
		c-0.87,0.87-0.87,2.28,0,3.15l29.85,29.85c2.49,2.49,6.52,2.49,9,0.01l1.12-1.12c2.49-2.48,2.49-6.51,0-9L19.31,178.71z"/>
	<path class="st1" d="M321.79,177.13l-29.85-29.85c-2.48-2.48-6.51-2.48-9-0.01l-1.12,1.12c-2.49,2.48-2.49,6.51,0,9l21.31,21.31
		l-21.31,21.31c-2.49,2.48-2.49,6.51,0,9l1.12,1.12c2.48,2.49,6.51,2.49,9,0l29.85-29.85C322.66,179.41,322.66,178,321.79,177.13z"
		/>
	<path class="st1" d="M356.39,177.13l-29.85-29.85c-2.48-2.48-6.51-2.48-9-0.01l-1.12,1.12c-2.49,2.48-2.49,6.51,0,9l21.31,21.31
		l-21.31,21.31c-2.49,2.48-2.49,6.51,0,9l1.12,1.12c2.48,2.49,6.51,2.49,9,0l29.85-29.85C357.26,179.41,357.26,178,356.39,177.13z"
		/>
	<path class="st1" d="M148.22,75.2c2.48,2.49,6.51,2.49,9,0l21.31-21.3l21.31,21.31c2.48,2.49,6.51,2.49,9,0l1.12-1.12
		c2.49-2.48,2.49-6.51,0-9l-29.85-29.85c-0.88-0.87-2.29-0.87-3.16,0L147.1,65.09c-2.49,2.49-2.49,6.52,0,8.99L148.22,75.2z"/>
	<path class="st1" d="M148.22,40.61c2.48,2.49,6.51,2.49,9,0l21.31-21.3l21.31,21.31c2.48,2.49,6.51,2.49,9,0l1.12-1.12
		c2.49-2.48,2.49-6.51,0-9L180.11,0.65c-0.88-0.87-2.29-0.87-3.16,0L147.1,30.5c-2.49,2.48-2.49,6.51,0,8.99L148.22,40.61z"/>
	<path class="st1" d="M176.94,321.76c0.88,0.87,2.29,0.87,3.16,0l29.85-29.85c2.49-2.49,2.49-6.52,0-8.99l-1.12-1.12
		c-2.48-2.49-6.51-2.49-9,0l-21.31,21.3l-21.31-21.31c-2.48-2.49-6.51-2.49-9,0l-1.12,1.12c-2.49,2.48-2.49,6.51,0,9L176.94,321.76z
		"/>
	<path class="st1" d="M208.84,316.39c-2.48-2.49-6.51-2.49-9,0l-21.31,21.3l-21.31-21.31c-2.48-2.49-6.51-2.49-9,0l-1.12,1.12
		c-2.49,2.48-2.49,6.51,0,9l29.84,29.85c0.88,0.87,2.29,0.87,3.16,0l29.85-29.85c2.49-2.48,2.49-6.51,0.01-8.99L208.84,316.39z"/>
</g>
</svg>
