<svg version="1" xmlns="http://www.w3.org/2000/svg" width="2101.333" height="2101.333" viewBox="0 0 1576.000000 1576.000000"><path d="M1335.6 304.1c-2.5 2-2.6 2.3-2.6 13.2-.1 45-18.8 95-65.3 174.7-5 8.5-18.5 30.8-30.1 49.5-11.5 18.7-26.3 42.8-32.9 53.5-61.5 99.7-86.2 156.2-90.7 207.5-1 11-.8 16.5.6 28.4l.6 4.4-2.9-.7c-10.2-2.6-24.9-17.5-41-41.6-8.5-12.8-11.6-18-11.2-18.4.2-.1 2.3-.8 4.7-1.5 15.5-4.4 24.2-30.6 24.2-72.8 0-26.5-3.9-50.2-10.1-61.2-14.8-26.1-45.3-60.7-75.3-85-20.4-16.6-50.6-33.7-73.5-41.6-5.8-1.9-16.1-4.8-23-6.2-11.5-2.5-14.6-2.7-35.1-2.8-17.8 0-24.4.4-31.5 1.8-17.5 3.5-35.5 9.6-52 17.6l-9.9 4.9-9-3.4c-11.2-4.3-34.7-10.7-49.1-13.4-21.3-3.9-35.5-5.1-68.1-5.7-41.2-.7-59.3.3-143.6 8.2-20.8 1.9-38.6 3.5-39.7 3.5-1.1 0-6.6 3.1-12.3 7-34 22.9-63.6 59.6-89.8 111.2l-10 19.6-6.7 2.3c-8.8 2.9-40.8 19.2-60.8 30.9-64.1 37.5-133.8 89.8-203.5 152.5-37.9 34.2-45.6 43.2-55.3 64.8C14.5 941.6 5.2 986.9 1.9 1046c-3.2 57.6 4.6 142.7 19.8 216.3l2.6 12.7h1378.4l.7-9.2c4.4-57 36.9-104.4 99.1-144.5 6.1-3.9 16.7-10.1 23.6-13.7l12.6-6.6 2.7-8.8c4-13.1 6.7-27.4 7.4-39.6l.7-10.9 3.2-.2c3.5-.3 10.6-5.6 14.8-11.1 8.4-11 10.5-24.7 5.4-35.4-7-14.7-23.7-23-46.4-23-16.8 0-34.4 4-46.5 10.6-2.7 1.4-5.5 2.4-6.2 2.1-.7-.3-5.1-3.6-9.8-7.4-12.2-9.7-32.5-30.3-55.5-56.3-11-12.4-23.7-26.4-28.3-31.2l-8.3-8.6 9.5-7.1c19.8-14.7 34.8-30.1 46.8-48.1 11.8-17.9 22.2-43.8 27.2-68 6.3-31 7.6-53.1 7.6-129.5 0-82.6 1.7-115.2 8.1-160 6.3-44.3 17.6-86.7 33.8-127.3 3.3-8.4 6.1-16.4 6.1-17.8 0-5.4-8-9.4-12.3-6.2-3.7 2.9-26.5 46.7-37.5 72.3-11.7 27-23.3 60.9-29.6 86-10.1 40.7-14.5 68.3-20.6 130-7.2 73.4-12.7 100.1-27.1 130.3-14.3 30.3-35.6 55-68.3 79.4-6.7 4.9-12.5 9.9-13 11.1-.6 1.2-1.1 2.3-1.1 2.5-.1.1-2.2-.5-4.6-1.3-22.2-7.9-45.6-8.9-76-3.4-6.2 1.1-11.6 1.6-12.1 1.1-.4-.4-1.8-3.5-3-6.8-3.2-8.4-3.1-27.5.1-42.8 6.3-30.1 19.7-63.9 58.1-146.1 57.8-123.9 77.9-180.2 86.6-242.7 2.6-18.5 2.4-52.4-.5-68.3-1.8-10.1-2.5-12.4-4.7-14.3-3.1-2.8-6.4-2.8-9.8-.1zm-6.1 109.5c-10 46.6-29.7 99.8-66.2 178.9-6.9 14.8-18.2 39.1-25 54-20.6 44.4-30.5 68-38.5 91.5-9.1 27.1-12.8 44.9-12.8 62 0 24.5 8.7 41 27.8 52.2 12.6 7.6 18 14.6 18.9 25 .7 6.8-1.6 14-5.1 16.3-1.2.8-5.7 2-10 2.7-20.3 3.1-51.6-6.9-67.2-21.4-4.9-4.7-7.3-8-11.3-16.1-8-16-9.4-22.6-9.5-44.7 0-13.7.4-20.9 1.7-27.8 7.4-38.9 29.3-88 69.2-154.8 9.5-15.9 16.8-27.7 46.3-75.4 40.2-64.8 65.2-110.1 78.3-141.6 3-7.3 5.5-13.1 5.7-12.9.1.1-.9 5.6-2.3 12.1zm128.6 32.6c-2 8.9-6.1 39.8-7.6 57.3-2.7 32.7-3.5 59.3-3.5 120.8 0 61.2-.8 85.2-3.6 107.1-6.7 52.9-24.3 89.2-57.4 118.3-5.2 4.6-11.2 9.5-13.2 11l-3.8 2.6-6.5-6.2c-7.8-7.3-13.5-11.4-27.8-20.5-6-3.8-10.5-7.2-10-7.6.4-.4 5.5-4.5 11.3-9.1 31.7-25.2 54.8-55.7 68.1-89.9 10.9-27.8 16.2-55.1 21.9-112 6.5-65.7 11.2-97.7 19.1-129.5 3.8-15.6 13.1-47.6 13.6-47.2.2.3-.1 2.4-.6 4.9zm-553.5 76.2c15.9 3.3 26.8 7.2 44 15.6 25.4 12.5 46.3 27.9 70.4 52 19.9 19.9 42.6 48.6 47.4 60.1 4.1 9.8 8.1 47.9 6.6 62.4-2.5 22.5-4.5 32.7-8.2 39.9l-2 4-3.2-5.2c-29.9-49.7-57.1-87-78.4-107.3-25.2-24.2-48.6-35.4-91.6-44l-14.9-2.9-10.6-7.9c-5.8-4.3-24.1-17.4-40.6-29.2l-30-21.3 8-3.8c14.3-6.7 32.1-12 48.5-14.4 14.4-2 39.3-1.1 54.6 2zm-212.3 1c7.5.9 17.9 2.3 23 3.1 19.5 3.3 52 13.1 57.8 17.4 1.4 1 6.3 3.8 10.9 6.1 18.1 9.1 32.6 19.2 51.4 36 5.9 5.2 15 12.9 20.4 17.1 5.3 4.1 10.2 8.5 10.8 9.7.6 1.2 1.9 3.1 2.9 4.2 1.8 2 1.8 2.4-1.3 15.3-1.7 7.3-4.3 18.8-5.7 25.7-5.3 25.1-17.6 65.2-31 100.5-4.6 12.1-9.8 25.8-11.5 30.5-6.5 17.8-20.7 51.3-30 71.1-30.5 64.7-60.9 104.6-88.1 115.6-7.8 3.2-41.5 7.5-84.4 10.8-28 2.2-93.4 3.1-119.1 1.6-35.9-2.1-70.6-5.9-101.9-11.2-16.8-2.8-18.7-3.4-28-8.1-15.3-7.6-25-13.7-33-20.5-7.5-6.4-19.2-19.8-18.7-21.4.1-.6-.2-5.9-.8-11.8-3.4-36.6 9.4-117.1 28.6-179.6 16.6-53.7 35.9-96.6 60-133 11.8-18 20.2-28.3 33.9-42.1 10.2-10.3 29-25.5 33.2-26.8 5.2-1.6 106-10.2 139.8-12 15.9-.8 67.6.3 80.8 1.8zm576.5 434.2c-3.4 6.8-3.8 8.4-3.8 15.1 0 9.1 1.5 14.5 5 18.3 5.5 5.9 11.1 5.2 18.7-2.4 2.9-2.9 5.3-5.1 5.3-5 0 .2-1.1 3.3-2.5 7-3.5 9.4-8.8 17.5-14.6 22.8-8.5 7.6-14.4 7.1-18.9-1.9-6.2-12.5-.3-42.4 11.4-57.8 1.6-2.1 2.9-3.7 3-3.7.2 0-1.5 3.4-3.6 7.6zm276.3 33.3c5.1 2 12.9 8 12.9 10 0 .5-1.9-.1-4.2-1.3-8.5-4.2-31.5-3.1-49.8 2.4-16.2 4.9-24.8 14.1-25 26.7 0 2.4-.4 4.3-.9 4.3s-2.5-1.8-4.5-4c-2.9-3.2-3.6-4.8-3.6-8 0-10.2 9.4-20.8 24-27 14.9-6.2 39.2-7.7 51.1-3.1zm1.3 23.5c1.9.8 3.7 2.4 4.1 3.6.7 2.2-1.1 8-2.5 8-.4 0-1.5-2.1-2.5-4.8-1-2.6-2.2-5.1-2.6-5.7-1-1-1.2-2.5-.4-2.5.3 0 2.1.6 3.9 1.4z"/></svg>