<?xml version="1.0" standalone="no"?>
<!DOCTYPE svg PUBLIC "-//W3C//DTD SVG 20010904//EN"
 "http://www.w3.org/TR/2001/REC-SVG-20010904/DTD/svg10.dtd">
<svg version="1.0" xmlns="http://www.w3.org/2000/svg"
 width="551.000000pt" height="551.000000pt" viewBox="0 0 551.000000 551.000000"
 preserveAspectRatio="xMidYMid meet">
<metadata>
Created by potrace 1.11, written by Peter Selinger 2001-2013
</metadata>
<g transform="translate(0.000000,551.000000) scale(0.100000,-0.100000)"
fill="#000000" stroke="none">
<path d="M213 5308 c-5 -7 -13 -21 -16 -30 -7 -19 -10 -12 249 -495 101 -188
189 -353 195 -366 10 -23 -8 -51 -282 -418 -162 -217 -307 -419 -322 -449 -26
-49 -28 -63 -24 -125 4 -62 13 -88 79 -225 122 -254 185 -290 498 -289 163 0
189 11 378 160 l147 116 273 6 272 6 0 -158 c0 -252 -26 -339 -134 -446 -57
-57 -91 -75 -553 -308 -270 -136 -519 -268 -553 -293 -184 -136 -317 -334
-377 -563 -35 -132 -37 -317 -6 -441 100 -396 414 -700 808 -781 86 -18 184
-19 2321 -19 l2231 0 34 23 c93 62 87 211 -11 262 -15 8 -126 37 -246 64
-1067 244 -2177 400 -3288 464 l-209 12 59 45 c85 64 216 191 299 291 182 218
323 497 390 771 52 214 58 299 54 843 l-4 499 260 109 c143 59 268 115 277
124 23 20 23 76 2 94 -9 8 -131 62 -272 120 l-254 107 65 53 c36 30 155 126
265 214 219 175 239 198 205 243 l-20 27 -422 3 c-347 2 -421 5 -421 16 0 7
21 98 46 202 25 103 43 198 40 210 -4 13 -15 25 -25 29 -14 4 -140 -62 -428
-223 l-408 -228 -202 5 -202 6 -346 370 c-303 323 -351 370 -379 373 -18 2
-37 -3 -43 -10z m1080 -1371 c-3 -55 -19 -91 -59 -131 -65 -65 -159 -83 -234
-44 -80 41 -119 130 -62 145 15 3 92 23 172 44 185 48 186 48 183 -14z"/>
<path d="M3946 3724 c-104 -23 -161 -57 -422 -251 -131 -98 -361 -270 -511
-381 l-271 -203 -5 -322 c-5 -360 -13 -417 -86 -633 l-37 -111 905 4 c1054 4
1048 4 1082 26 49 32 65 113 33 165 -9 15 -193 162 -410 327 -216 165 -390
301 -385 303 8 3 84 -10 791 -133 201 -35 449 -78 551 -95 109 -19 198 -30
214 -26 34 9 72 47 81 80 15 62 0 87 -144 226 -75 74 -319 314 -542 535 -377
374 -410 404 -480 438 -79 39 -188 67 -255 66 -22 0 -71 -7 -109 -15z"/>
</g>
</svg>
